<svg xmlns="http://www.w3.org/2000/svg" width="28.62" height="32.469" viewBox="0 0 28.62 32.469">
  <g id="acarafloral24" transform="translate(0.429 1)">
    <path id="Path_471045" data-name="Path 471045" d="M331.013,1439.766h27.761" transform="translate(-331.013 -1430.488)" fill="none" stroke="#b47822" stroke-width="2"/>
    <path id="Path_471046" data-name="Path 471046" d="M345.356,1444.23l.961,1.948a1.3,1.3,0,0,0,.979.711l2.15.313a1.3,1.3,0,0,1,.721,2.218l-1.555,1.516a1.3,1.3,0,0,0-.374,1.151l.368,2.142a1.3,1.3,0,0,1-1.887,1.371l-1.923-1.011a1.3,1.3,0,0,0-1.21,0l-1.923,1.011a1.3,1.3,0,0,1-1.886-1.371l.366-2.142a1.3,1.3,0,0,0-.373-1.151l-1.556-1.516a1.3,1.3,0,0,1,.721-2.218l2.15-.313a1.3,1.3,0,0,0,.98-.711l.961-1.948A1.3,1.3,0,0,1,345.356,1444.23Z" transform="translate(-330.215 -1430.05)" fill="none" stroke="#b47822" stroke-width="2"/>
    <line id="Line_210" data-name="Line 210" y2="5.499" transform="translate(7.128)" fill="none" stroke="#b47822" stroke-linecap="round" stroke-width="2"/>
    <line id="Line_211" data-name="Line 211" y2="5.499" transform="translate(21.581)" fill="none" stroke="#b47822" stroke-linecap="round" stroke-width="2"/>
    <rect id="Rectangle_5825" data-name="Rectangle 5825" width="26.62" height="27.479" rx="3.569" transform="translate(0.571 2.99)" fill="none" stroke="#b47822" stroke-width="2"/>
  </g>
</svg>
