<svg xmlns="http://www.w3.org/2000/svg" width="30.641" height="32.479">
    <defs>
        <style>
            .cls-1{fill:none;stroke:#e3c891;stroke-linecap:round;stroke-linejoin:round;stroke-width:2px}
        </style>
    </defs>
    <g id="angpaudigital" transform="translate(617.734 3441.641)">
        <path id="Rectangle_4001" data-name="Rectangle 4001" class="cls-1" d="M-615.012-3431.32h23.8v12.583a4.784 4.784 0 0 1-4.784 4.784h-14.23a4.784 4.784 0 0 1-4.784-4.784h0v-12.583z" transform="translate(.701 3.79)"/>
        <rect id="Rectangle_4002" data-name="Rectangle 4002" class="cls-1" width="28.641" height="6.16" rx="1.597" transform="translate(-616.734 -3433.69)"/>
        <g id="Group_14211" data-name="Group 14211" transform="translate(-611.516 -3440.632)">
            <path id="Path_323352" data-name="Path 323352" class="cls-1" d="M-606.556-3433.689s1.475-7.9 6.792-6.846.789 7.477-6.792 6.846z" transform="translate(615.659 3440.632)"/>
            <path id="Path_323353" data-name="Path 323353" class="cls-1" d="M-603.923-3433.689s-1.475-7.9-6.792-6.846-.785 7.477 6.792 6.846z" transform="translate(613.025 3440.632)"/>
        </g>
        <path id="Line_211" data-name="Line 211" class="cls-1" transform="translate(-602.413 -3433.69)" d="M0 0v23.526"/>
    </g>
</svg>
