<svg xmlns="http://www.w3.org/2000/svg" width="118.764" height="114.752">
    <defs>
        <style>
            .cls-1{fill:#eaeaea}
        </style>
    </defs>
    <g id="BCA" transform="translate(-703.904 -429.85)">
        <path id="Path_470764" data-name="Path 470764" class="cls-1" d="M748.7 526.758c-.422-6.32-.766-12.647-1.28-18.961a43.883 43.883 0 0 0-14.11-29.541c-5.63-5.267-10.014-11.28-10.544-19.424-.961-14.77 7.8-25.794 22.826-28.476 11.66-2.081 22.932 2.372 28.617 11.3 5.932 9.318 5.277 21.927-1.712 31.5a26.483 26.483 0 0 1-4.145 4.8c-11.762 9.858-15.469 23.078-15.835 37.623-.195 7.7.161 15.414-.012 23.115-.042 1.881-1.214 5.348-1.834 5.341-4.065-.049-2.16-3.462-2.311-5.472-.294-3.907-.086-7.852-.086-11.781z" transform="translate(12.77)"/>
        <path id="Path_470765" data-name="Path 470765" class="cls-1" d="M758.9 512.119c0 4.073.1 8.153-.074 12.219-.042.959-1.014 1.878-1.559 2.815-.811-.892-2-1.658-2.351-2.7-.67-1.979-.694-4.165-1.278-6.181-2.647-9.125-8.952-14.94-17.6-18.208-5.645-2.135-11.562-3.547-17.313-5.418-11.527-3.754-14.7-9-13.249-21.635 1.179-10.246 8.2-17.086 18.4-17.975 10.991-.959 18.993 4 24.922 12.733 6.661 9.814 8.725 21.1 9.916 32.591.4 3.9.417 7.84.606 11.76z" transform="translate(.846 17.034)"/>
        <path id="Path_470766" data-name="Path 470766" class="cls-1" d="M741.384 508.9c.4-11.443.018-23.172 5.9-33.494 3.153-5.534 7-11.079 11.767-15.2 7.506-6.5 16.527-7.106 25.4-2.237 8.851 4.857 11.018 13.153 10.56 22.4-.316 6.386-4 10.729-9.821 12.948-5.5 2.094-11.188 3.7-16.828 5.4-8.4 2.536-15.793 6.512-19.646 14.8-1.555 3.347-1.945 7.217-3.074 10.785a15.373 15.373 0 0 1-2.133 3.376c-.709-1.129-1.979-2.234-2.029-3.391-.222-5.121-.096-10.257-.096-15.387z" transform="translate(25.447 16.924)"/>
        <path id="Path_470767" data-name="Path 470767" class="cls-1" d="M791.487 477.389c3.094 5.823 4.952 12.54.653 19.325-4.313 6.807-11.161 8.92-18.885 8.374-4.063-.286-8.089-1.065-12.138-1.564-5.38-.664-9.389 1.28-12.118 6.073-.672 1.179-2.246 1.849-3.87 2.273-.3-9.428 3.433-16.69 11.2-20.98 5.877-3.248 12.528-5.116 18.863-7.523 5.139-1.952 10.321-3.791 16.295-5.978z" transform="translate(28.005 32.307)"/>
        <path id="Path_470768" data-name="Path 470768" class="cls-1" d="M706.872 477.235c5.909 2.3 10.858 4.427 15.944 6.152 5.151 1.745 10.6 2.691 15.632 4.7 8.8 3.512 14.068 10.235 15.59 19.6.218 1.344-.746 2.877-1.162 4.323-1.218-.843-2.87-1.419-3.583-2.573-3.588-5.813-7.417-7.431-15.037-6.314a97.164 97.164 0 0 1-14.4 1.458c-6.9-.035-11.656-3.875-14.285-10.1s-2.122-12.237 1.301-17.246z" transform="translate(0 32.203)"/>
    </g>
</svg>
