<svg xmlns="http://www.w3.org/2000/svg" width="24.048" height="23.699" viewBox="0 0 24.048 23.699">
  <g id="beranda2_inactive" transform="translate(-2347.047 2688.789)">
    <path id="Path_323340" data-name="Path 323340" d="M2364.583-2683.967l-3.223-2.792a3.5,3.5,0,0,0-4.578,0l-3.223,2.792-4.305,3.728a3.5,3.5,0,0,0-1.207,2.643v8.01a3.5,3.5,0,0,0,3.5,3.5H2366.6a3.5,3.5,0,0,0,3.5-3.5v-8.01a3.494,3.494,0,0,0-1.207-2.643Z" fill="none" stroke="#494949" stroke-linecap="round" stroke-linejoin="round" stroke-width="2"/>
    <path id="Rectangle_3999" data-name="Rectangle 3999" d="M3.025,0h.629A3.025,3.025,0,0,1,6.68,3.025v7.2a0,0,0,0,1,0,0H0a0,0,0,0,1,0,0v-7.2A3.025,3.025,0,0,1,3.025,0Z" transform="translate(2355.731 -2676.31)" fill="none" stroke="#494949" stroke-linecap="round" stroke-linejoin="round" stroke-width="2"/>
  </g>
</svg>
