<svg xmlns="http://www.w3.org/2000/svg" width="114.296" height="64.563" viewBox="0 0 114.296 64.563">
  <g id="bridesmaidfloral24" transform="translate(871.899 -11457.854)">
    <path id="Path_471026" data-name="Path 471026" d="M-62.028-12.9a14.609,14.609,0,0,1,2.718,1.021,11,11,0,0,1,1.893,1.2A6.1,6.1,0,0,1-56.2-9.407a6.646,6.646,0,0,1,.687,1.243,4.453,4.453,0,0,1,.306,1.1,7.018,7.018,0,0,1,.065.863,5.278,5.278,0,0,1-.492,2.319,6.012,6.012,0,0,1-1.327,1.8A7.875,7.875,0,0,1-58.9-.761a14.022,14.022,0,0,1-2.31.881,16.459,16.459,0,0,1-2.468.5,19.332,19.332,0,0,1-2.394.158A20.36,20.36,0,0,1-69.868.408,19.972,19.972,0,0,1-73.829-.8a.656.656,0,0,1-.445-.649.646.646,0,0,1,.223-.51.719.719,0,0,1,.482-.195.8.8,0,0,1,.278.056A18.932,18.932,0,0,0-69.747-1a18.235,18.235,0,0,0,3.655.371,16.791,16.791,0,0,0,4.3-.482,9.731,9.731,0,0,0,2.959-1.271,5.369,5.369,0,0,0,1.716-1.781,4.075,4.075,0,0,0,.557-2.013,3.8,3.8,0,0,0-.622-2.1A6.025,6.025,0,0,0-58.939-10a11.6,11.6,0,0,0-2.737-1.3,18.923,18.923,0,0,0-3.544-.8q-1.28.223-2.486.315t-2.227.093h-.427a1.469,1.469,0,0,1-.241-.019A23.408,23.408,0,0,1-73.783-6.16a20.508,20.508,0,0,1-3.934,3.869A15.591,15.591,0,0,1-82-.028a13.334,13.334,0,0,1-4.221.733,12.114,12.114,0,0,1-3.85-.584A8.947,8.947,0,0,1-93.089-1.54a7.515,7.515,0,0,1-1.967-2.607,8.088,8.088,0,0,1-.705-3.423,11.833,11.833,0,0,1,.77-4.073A18.68,18.68,0,0,1-92.7-15.92a23.222,23.222,0,0,1,3.21-3.665,25.8,25.8,0,0,1,3.7-2.848,27.724,27.724,0,0,1,4-2.1A32.564,32.564,0,0,1-77.7-25.958a29.183,29.183,0,0,1,3.971-.807,28.535,28.535,0,0,1,3.646-.25q1.392,0,2.653.093t2.412.278a9.871,9.871,0,0,1,1.076-1.067q.408-.325.464-.362a.9.9,0,0,1,.39-.111.769.769,0,0,1,.464.148.5.5,0,0,1,.2.427.829.829,0,0,1-.26.622l-.705.677a11.534,11.534,0,0,1,5.2,2.514,5.446,5.446,0,0,1,1.8,4.147,6.306,6.306,0,0,1-.445,2.431,6.167,6.167,0,0,1-1.215,1.893,8.039,8.039,0,0,1-1.8,1.419A12.723,12.723,0,0,1-62.028-12.9Zm-3.173-.612q.816-.148,1.679-.39a14.715,14.715,0,0,0,1.688-.584,10.18,10.18,0,0,0,1.568-.816,5.751,5.751,0,0,0,1.29-1.113A5.23,5.23,0,0,0-58.1-17.85a4.791,4.791,0,0,0,.325-1.818A4.186,4.186,0,0,0-59.5-23.1a11.756,11.756,0,0,0-4.954-2A20.836,20.836,0,0,0-66.2-22.562q-.816,1.392-1.5,2.885t-1.234,3.024a30.53,30.53,0,0,0-.9,2.959q.371-.019.687-.019h.538q.724,0,1.577.046T-65.2-13.508Zm-.835-11.856q-.946-.13-1.948-.186t-2.1-.056a26.709,26.709,0,0,0-3.47.241,29.038,29.038,0,0,0-3.767.761A30.219,30.219,0,0,0-81.2-23.258a26.524,26.524,0,0,0-3.8,1.985,24.07,24.07,0,0,0-3.516,2.7,22.238,22.238,0,0,0-3.043,3.47,16.87,16.87,0,0,0-2.1,3.878,10.509,10.509,0,0,0-.705,3.637,6.894,6.894,0,0,0,.584,2.895,5.949,5.949,0,0,0,1.661,2.162,7.642,7.642,0,0,0,2.579,1.354,11.021,11.021,0,0,0,3.321.473,11.9,11.9,0,0,0,3.785-.659A14.2,14.2,0,0,0-78.6-3.386a19.013,19.013,0,0,0,3.563-3.451,21.718,21.718,0,0,0,2.95-4.963A1.416,1.416,0,0,1-72.771-12a.659.659,0,0,1-.353-.622.661.661,0,0,1,.427-.64,5.216,5.216,0,0,1,1.336-.325q.5-1.521,1.021-3.043t1.15-3.006q.631-1.484,1.392-2.922A23.073,23.073,0,0,1-66.036-25.364ZM-50.079-7.626a9.305,9.305,0,0,1-.186.937q-.111.436-.213.761t-.176.529a1.227,1.227,0,0,1-.093.223.656.656,0,0,1-.649.427.719.719,0,0,1-.482-.195.625.625,0,0,1-.223-.492.3.3,0,0,1,.037-.167,1.768,1.768,0,0,0,.111-.223,4.718,4.718,0,0,0,.186-.557q.111-.39.278-1.206-.315,0-.649-.019a2.022,2.022,0,0,1-.622-.13,1.075,1.075,0,0,1-.473-.353,1.072,1.072,0,0,1-.186-.668,2.93,2.93,0,0,1,.176-.854,5.718,5.718,0,0,1,.473-1.058,4.42,4.42,0,0,1,.668-.9,1.059,1.059,0,0,1,.742-.38.872.872,0,0,1,.7.315,2.244,2.244,0,0,1,.417.77,5.243,5.243,0,0,1,.213.956,6.9,6.9,0,0,1,.065.872q.315,0,.622-.009t.584-.009a2.462,2.462,0,0,1,1.614.464,1.876,1.876,0,0,1,.557,1.521,7.481,7.481,0,0,1-.056.891q-.056.464-.13.956t-.13.974a8.253,8.253,0,0,0-.056.946,2.836,2.836,0,0,0,.186,1.1,2.014,2.014,0,0,0,.464.7,1.587,1.587,0,0,0,.594.362,1.884,1.884,0,0,0,.575.1,2.489,2.489,0,0,0,1.5-.52,7.077,7.077,0,0,0,1.3-1.252A12.08,12.08,0,0,0-41.275-4.36q.473-.816.789-1.429a.656.656,0,0,1,.26-.26.715.715,0,0,1,.353-.093.652.652,0,0,1,.52.213.7.7,0,0,1,.186.473.736.736,0,0,1-.074.334q-.427.761-.993,1.716a12.291,12.291,0,0,1-1.29,1.791A7.456,7.456,0,0,1-43.149-.2a3.6,3.6,0,0,1-1.976.575,3.213,3.213,0,0,1-1.262-.25A2.937,2.937,0,0,1-47.417-.6a3.515,3.515,0,0,1-.7-1.169,4.458,4.458,0,0,1-.26-1.568,9.3,9.3,0,0,1,.186-1.846A8.86,8.86,0,0,0-48-6.939a.772.772,0,0,0-.158-.529.961.961,0,0,0-.7-.176h-.566Q-49.727-7.645-50.079-7.626ZM-51.322-9q0-.13-.009-.343t-.037-.417a2.183,2.183,0,0,0-.074-.353q-.046-.148-.1-.148t-.139.139q-.083.139-.176.334a3.67,3.67,0,0,0-.167.417q-.074.223-.111.371Zm13.842-5.566a1.629,1.629,0,0,1-.492,1.2,1.629,1.629,0,0,1-1.2.492,1.629,1.629,0,0,1-1.2-.492,1.629,1.629,0,0,1-.492-1.2,1.669,1.669,0,0,1,.13-.659,1.683,1.683,0,0,1,.362-.538,1.683,1.683,0,0,1,.538-.362,1.669,1.669,0,0,1,.659-.13,1.669,1.669,0,0,1,.659.13,1.683,1.683,0,0,1,.538.362,1.683,1.683,0,0,1,.362.538A1.669,1.669,0,0,1-37.48-14.565ZM-40.486-3.692a42.6,42.6,0,0,1,.334-5.325.787.787,0,0,1,.232-.455.69.69,0,0,1,.51-.195.589.589,0,0,1,.464.213.727.727,0,0,1,.186.492q0,.111-.046.668t-.111,1.327q-.065.77-.111,1.633t-.046,1.586a5.294,5.294,0,0,0,.195,1.586,2.518,2.518,0,0,0,.5.937,1.535,1.535,0,0,0,.649.445,2.133,2.133,0,0,0,.659.111A1.947,1.947,0,0,0-36-1.039a5.927,5.927,0,0,0,1.141-1.039,13.041,13.041,0,0,0,1.178-1.6,23.743,23.743,0,0,0,1.169-2.087.69.69,0,0,1,.26-.288.7.7,0,0,1,.371-.1.625.625,0,0,1,.492.223.719.719,0,0,1,.195.482.626.626,0,0,1-.074.315q-.223.427-.557,1.039t-.761,1.262q-.427.649-.937,1.29A9.187,9.187,0,0,1-34.6-.4a5.579,5.579,0,0,1-1.206.826,2.835,2.835,0,0,1-1.28.315A2.955,2.955,0,0,1-38.557.39a3.322,3.322,0,0,1-1.067-.946,4.118,4.118,0,0,1-.649-1.4A6.768,6.768,0,0,1-40.486-3.692Zm1.967-10.873a.623.623,0,0,0-.195-.455.623.623,0,0,0-.455-.195.593.593,0,0,0-.445.195.638.638,0,0,0-.186.455.607.607,0,0,0,.186.445.607.607,0,0,0,.445.186.638.638,0,0,0,.455-.186A.593.593,0,0,0-38.52-14.565ZM-25.327-5.4q.909,4.286,2.635,4.286a2.02,2.02,0,0,0,1.28-.492,6.471,6.471,0,0,0,1.141-1.206,10.82,10.82,0,0,0,.937-1.512q.408-.8.668-1.392a.656.656,0,0,1,.649-.445.653.653,0,0,1,.5.223.7.7,0,0,1,.2.482.574.574,0,0,1-.056.26q-.13.315-.38.844t-.612,1.132q-.362.6-.807,1.234A7.26,7.26,0,0,1-20.15-.854a5.505,5.505,0,0,1-1.141.826A2.643,2.643,0,0,1-22.562.3,2.958,2.958,0,0,1-24.7-.566a7,7,0,0,1-1.54-2.848,9.131,9.131,0,0,1-1.8,2.746A2.829,2.829,0,0,1-30,.186,3.327,3.327,0,0,1-31.079.009a2.234,2.234,0,0,1-.909-.584,3.057,3.057,0,0,1-.631-1.048,4.468,4.468,0,0,1-.241-1.568,6.1,6.1,0,0,1,.445-2.356,6.23,6.23,0,0,1,1.15-1.846,5.322,5.322,0,0,1,1.568-1.2,3.845,3.845,0,0,1,1.716-.427.675.675,0,0,1,.482.195.651.651,0,0,1,.2.492.713.713,0,0,1-.167.464.666.666,0,0,1-.445.241,4.406,4.406,0,0,0-1.187.353,3.814,3.814,0,0,0-1.16.807,4.148,4.148,0,0,0-.872,1.345,5.011,5.011,0,0,0-.343,1.948,2.41,2.41,0,0,0,.38,1.447,1.284,1.284,0,0,0,1.1.52,1.482,1.482,0,0,0,.631-.158,2.227,2.227,0,0,0,.714-.622A8.239,8.239,0,0,0-27.8-3.3a23.436,23.436,0,0,0,1.011-2.245q-.315-1.633-.575-3.767a39.717,39.717,0,0,1-.26-4.769q0-1.15.074-2.4t.241-2.449a20.261,20.261,0,0,1,.445-2.273A10.047,10.047,0,0,1-26.19-23.1a4.066,4.066,0,0,1,.937-1.29,1.8,1.8,0,0,1,1.225-.473,1.634,1.634,0,0,1,1.039.334,2.414,2.414,0,0,1,.7.928,5.532,5.532,0,0,1,.4,1.429,11.992,11.992,0,0,1,.13,1.837,25.292,25.292,0,0,1-.371,4.3,41.938,41.938,0,0,1-.918,4.119q-.547,1.967-1.16,3.637T-25.327-5.4Zm2.171-14.955q0-.464-.028-1a6.353,6.353,0,0,0-.13-1.011,3.084,3.084,0,0,0-.269-.789.5.5,0,0,0-.445-.315q-.464,0-.863.816a9.9,9.9,0,0,0-.7,2.143,26.557,26.557,0,0,0-.473,3.006,32.413,32.413,0,0,0-.176,3.386q0,1.633.13,3.266t.3,2.913q.538-1.429,1.021-2.941t.844-3.089q.362-1.577.575-3.182A24.262,24.262,0,0,0-23.156-20.354Zm6.735,18.313a2.886,2.886,0,0,0,1,.863,3.176,3.176,0,0,0,1.5.325,3.2,3.2,0,0,0,1.651-.436A5.453,5.453,0,0,0-10.91-2.431,9.15,9.15,0,0,0-9.815-4.008q.482-.872.872-1.744a.672.672,0,0,1,.26-.306.7.7,0,0,1,.371-.1.646.646,0,0,1,.51.223.719.719,0,0,1,.195.482.581.581,0,0,1-.019.158.814.814,0,0,1-.056.139A13.474,13.474,0,0,1-10.474-.909,5,5,0,0,1-13.9.557,4.449,4.449,0,0,1-16.013.083a4.438,4.438,0,0,1-1.466-1.225,5.162,5.162,0,0,1-.854-1.7,6.678,6.678,0,0,1-.278-1.893,6.229,6.229,0,0,1,.232-1.744,4.4,4.4,0,0,1,.668-1.392,3.218,3.218,0,0,1,1.039-.928,2.692,2.692,0,0,1,1.327-.334,2.153,2.153,0,0,1,.844.176,2.423,2.423,0,0,1,.751.5,2.476,2.476,0,0,1,.538.789,2.6,2.6,0,0,1,.2,1.058,3.907,3.907,0,0,1-.26,1.429,4.8,4.8,0,0,1-.714,1.243,6.083,6.083,0,0,1-1.085,1.058A7.969,7.969,0,0,1-16.421-2.041Zm-.557-1.206a4.524,4.524,0,0,0,1.048-.612,4.377,4.377,0,0,0,.807-.816,3.787,3.787,0,0,0,.52-.937,2.792,2.792,0,0,0,.186-.993A1.168,1.168,0,0,0-14.7-7.45a.876.876,0,0,0-.649-.288,1.335,1.335,0,0,0-.854.278,2.1,2.1,0,0,0-.575.724,3.742,3.742,0,0,0-.325.993,5.912,5.912,0,0,0-.1,1.085,4.1,4.1,0,0,0,.065.705Q-17.07-3.581-16.978-3.247ZM-6.884-6.865q-.111.3-.269.668t-.362.779a2.054,2.054,0,0,1-.343.492.615.615,0,0,1-.455.176.659.659,0,0,1-.5-.195A.638.638,0,0,1-9-5.4a.581.581,0,0,1,.019-.158,1.458,1.458,0,0,1,.093-.213,11.505,11.505,0,0,0,.714-1.624,11.668,11.668,0,0,0,.38-1.457,6.98,6.98,0,0,1-.186-.724,3.316,3.316,0,0,1-.056-.612,1.727,1.727,0,0,1,.26-.993.828.828,0,0,1,.724-.38.778.778,0,0,1,.677.371,1.588,1.588,0,0,1,.25.909,3.215,3.215,0,0,1-.056.594q-.056.3-.148.742.427,1.058.854,1.874t.761,1.494A12.3,12.3,0,0,1-4.166-4.3a3.491,3.491,0,0,1,.213,1.188,3.6,3.6,0,0,1-.315,1.484A2.8,2.8,0,0,1-5.307-.445a.944.944,0,0,0,.186.019h.186A4.025,4.025,0,0,0-2.987-.909a6.224,6.224,0,0,0,1.6-1.252A10.038,10.038,0,0,0-.111-3.869,17.287,17.287,0,0,0,.854-5.733q.186-.427.52-.427a.592.592,0,0,1,.492.223.762.762,0,0,1,.176.482.7.7,0,0,1-.056.278q-.2.5-.529,1.141A12.609,12.609,0,0,1,.677-2.718,11.318,11.318,0,0,1-.371-1.392,7.931,7.931,0,0,1-1.7-.232,6.647,6.647,0,0,1-3.3.584,5.734,5.734,0,0,1-5.214.891,6.047,6.047,0,0,1-7.524.455,3.764,3.764,0,0,1-9.259-.983a.625.625,0,0,1-.111-.353.676.676,0,0,1,.213-.492.676.676,0,0,1,.492-.213.681.681,0,0,1,.5.2.5.5,0,0,0,.13.121q.111.083.269.186a1.724,1.724,0,0,0,.371.176,1.318,1.318,0,0,0,.436.074,1.425,1.425,0,0,0,.751-.186,1.583,1.583,0,0,0,.492-.455A1.877,1.877,0,0,0-5.446-2.5a2.056,2.056,0,0,0,.083-.529,3.029,3.029,0,0,0-.148-.928,6.515,6.515,0,0,0-.38-.928q-.232-.464-.5-.956A10.535,10.535,0,0,1-6.884-6.865ZM-54.217,28.349q.278-.557.714-1.382t.909-1.661q.473-.835.928-1.577A11.062,11.062,0,0,1-50.9,22.6a3.421,3.421,0,0,1,1.113-.928,2.453,2.453,0,0,1,1.058-.278,1.587,1.587,0,0,1,.826.2,1.709,1.709,0,0,1,.566.547,2.583,2.583,0,0,1,.334.8,4.086,4.086,0,0,1,.111.974q0,.3-.028.779t-.056,1.039q-.028.557-.056,1.15T-47.073,28q.278-.557.631-1.234t.714-1.345q.362-.668.7-1.252a9.364,9.364,0,0,1,.612-.956,4.884,4.884,0,0,1,1.494-1.466,2.691,2.691,0,0,1,1.234-.371,2.084,2.084,0,0,1,1.039.232,1.8,1.8,0,0,1,.64.594,2.381,2.381,0,0,1,.325.807,4.186,4.186,0,0,1,.093.854,9.845,9.845,0,0,1-.093,1.317,12.4,12.4,0,0,0-.093,1.633q0,.39.037.779a2.435,2.435,0,0,0,.158.687,1.081,1.081,0,0,0,.38.482,1.192,1.192,0,0,0,.705.186,1.97,1.97,0,0,0,.946-.25,4.137,4.137,0,0,0,.891-.659,7.007,7.007,0,0,0,.807-.928q.38-.52.7-1.039t.557-.993q.241-.473.39-.807a.732.732,0,0,1,.26-.315.655.655,0,0,1,.371-.111.634.634,0,0,1,.51.232.753.753,0,0,1,.195.492.655.655,0,0,1-.056.26q-.074.148-.3.622a11.181,11.181,0,0,1-.594,1.076q-.371.6-.863,1.271a9.394,9.394,0,0,1-1.085,1.234,5.715,5.715,0,0,1-1.28.928,3.062,3.062,0,0,1-1.447.362,2.687,2.687,0,0,1-1.327-.288,2.27,2.27,0,0,1-.816-.77,3.04,3.04,0,0,1-.417-1.113,7.571,7.571,0,0,1-.111-1.317,14.089,14.089,0,0,1,.093-1.679,10.7,10.7,0,0,0,.093-1.2,2.273,2.273,0,0,0-.083-.705.775.775,0,0,0-.2-.343.422.422,0,0,0-.232-.111q-.111-.009-.167-.009a1.384,1.384,0,0,0-.937.492,7.71,7.71,0,0,0-1.011,1.308q-.52.816-1.067,1.855t-1.1,2.115q-.315.594-.529.983a3.482,3.482,0,0,1-.408.612,1.3,1.3,0,0,1-.38.315.9.9,0,0,1-.408.093.859.859,0,0,1-.733-.334,1.416,1.416,0,0,1-.25-.872q0-.278.019-.742t.037-1.021q.019-.557.056-1.15t.056-1.141q.019-.547.037-.974t.019-.649a1.139,1.139,0,0,0-.167-.7.487.487,0,0,0-.39-.213.911.911,0,0,0-.455.148,2.365,2.365,0,0,0-.584.575q-.26.334-.659.974t-.844,1.419q-.445.779-.881,1.6t-.751,1.466a2.979,2.979,0,0,1-.779,1.067,1.287,1.287,0,0,1-.761.288.96.96,0,0,1-.8-.325,1.341,1.341,0,0,1-.26-.863q0-.056.028-.668t.065-1.494q.037-.881.083-1.883t.083-1.874a4.718,4.718,0,0,0-.037-.854.842.842,0,0,0-.148-.464q-.148.037-.584.687a14.269,14.269,0,0,0-1.1,2.264.692.692,0,0,1-.278.315.746.746,0,0,1-.39.111.63.63,0,0,1-.5-.213.727.727,0,0,1-.186-.492.8.8,0,0,1,.056-.278,12.473,12.473,0,0,1,1.6-2.922,2.049,2.049,0,0,1,1.484-.937,1.245,1.245,0,0,1,.714.195,1.415,1.415,0,0,1,.455.5,2.37,2.37,0,0,1,.241.7,4.061,4.061,0,0,1,.074.761q0,1.651-.083,3.024T-54.217,28.349Zm34.345-3.525q-.074.148-.306.622t-.594,1.085q-.362.612-.844,1.28a8.478,8.478,0,0,1-1.076,1.225,5.871,5.871,0,0,1-1.28.918,3.061,3.061,0,0,1-1.447.362,2.546,2.546,0,0,1-1.809-.687A3.986,3.986,0,0,1-28.3,27.9a5.448,5.448,0,0,1-1.5,1.679,2.992,2.992,0,0,1-1.744.622,3,3,0,0,1-1.243-.25,2.676,2.676,0,0,1-.946-.705,3.278,3.278,0,0,1-.6-1.067,4.034,4.034,0,0,1-.213-1.336,6.217,6.217,0,0,1,.492-2.551A5.892,5.892,0,0,1-32.8,22.448a5.167,5.167,0,0,1,1.679-1.113,4.72,4.72,0,0,1,1.772-.371,3.387,3.387,0,0,1,1.058.158,5.041,5.041,0,0,1,.826.343,3.143,3.143,0,0,1,.529.343q.186.158.2.176a.769.769,0,0,1,.2.5.691.691,0,0,1-.2.492.646.646,0,0,1-.482.213.681.681,0,0,1-.5-.2q-.037-.037-.167-.139a2.1,2.1,0,0,0-.353-.213,2.884,2.884,0,0,0-.529-.195,2.649,2.649,0,0,0-.7-.083,3.3,3.3,0,0,0-1.225.26,3.467,3.467,0,0,0-1.187.807,4.522,4.522,0,0,0-.9,1.373,4.851,4.851,0,0,0-.362,1.958,3.548,3.548,0,0,0,.074.714,1.983,1.983,0,0,0,.26.659,1.441,1.441,0,0,0,.5.482,1.514,1.514,0,0,0,.779.186,1.738,1.738,0,0,0,.77-.223,2.8,2.8,0,0,0,.835-.687,4.978,4.978,0,0,0,.724-1.169,5.858,5.858,0,0,0,.455-1.67.689.689,0,0,1,.241-.436.714.714,0,0,1,.482-.176.61.61,0,0,1,.455.2.733.733,0,0,1,.213.464q.019.353.074.993a6.083,6.083,0,0,0,.25,1.271,3.1,3.1,0,0,0,.584,1.095,1.33,1.33,0,0,0,1.076.464,1.8,1.8,0,0,0,.881-.241,4.156,4.156,0,0,0,.854-.64,7.229,7.229,0,0,0,.8-.909q.38-.51.7-1.03t.557-1q.241-.482.408-.835a.71.71,0,0,1,.269-.315.7.7,0,0,1,.38-.111.634.634,0,0,1,.51.232.753.753,0,0,1,.195.492A.655.655,0,0,1-19.872,24.823Zm1.744-9.389a1.629,1.629,0,0,1-.492,1.2,1.629,1.629,0,0,1-1.2.492,1.629,1.629,0,0,1-1.2-.492,1.629,1.629,0,0,1-.492-1.2,1.669,1.669,0,0,1,.13-.659,1.683,1.683,0,0,1,.362-.538,1.683,1.683,0,0,1,.538-.362,1.669,1.669,0,0,1,.659-.13,1.669,1.669,0,0,1,.659.13,1.683,1.683,0,0,1,.538.362,1.683,1.683,0,0,1,.362.538A1.669,1.669,0,0,1-18.128,15.435Zm-3.006,10.873a42.6,42.6,0,0,1,.334-5.325.787.787,0,0,1,.232-.455.69.69,0,0,1,.51-.195.589.589,0,0,1,.464.213.727.727,0,0,1,.186.492q0,.111-.046.668t-.111,1.327q-.065.77-.111,1.633t-.046,1.586a5.294,5.294,0,0,0,.195,1.586,2.518,2.518,0,0,0,.5.937,1.535,1.535,0,0,0,.649.445,2.133,2.133,0,0,0,.659.111,1.947,1.947,0,0,0,1.076-.371A5.927,5.927,0,0,0-15.5,27.922a13.041,13.041,0,0,0,1.178-1.6,23.743,23.743,0,0,0,1.169-2.087.69.69,0,0,1,.26-.288.7.7,0,0,1,.371-.1.625.625,0,0,1,.492.223.719.719,0,0,1,.195.482.626.626,0,0,1-.074.315q-.223.427-.557,1.039t-.761,1.262q-.427.649-.937,1.29a9.187,9.187,0,0,1-1.085,1.15,5.579,5.579,0,0,1-1.206.826,2.835,2.835,0,0,1-1.28.315A2.955,2.955,0,0,1-19.2,30.39a3.322,3.322,0,0,1-1.067-.946,4.118,4.118,0,0,1-.649-1.4A6.768,6.768,0,0,1-21.134,26.308Zm1.967-10.873a.623.623,0,0,0-.195-.455.623.623,0,0,0-.455-.195.593.593,0,0,0-.445.195.638.638,0,0,0-.186.455.607.607,0,0,0,.186.445.607.607,0,0,0,.445.186.638.638,0,0,0,.455-.186A.593.593,0,0,0-19.167,15.435ZM-5.975,24.6q.909,4.286,2.635,4.286A2.02,2.02,0,0,0-2.06,28.4,6.471,6.471,0,0,0-.918,27.189a10.82,10.82,0,0,0,.937-1.512q.408-.8.668-1.392a.656.656,0,0,1,.649-.445.653.653,0,0,1,.5.223.7.7,0,0,1,.2.482.574.574,0,0,1-.056.26q-.13.315-.38.844T.993,26.781q-.362.6-.807,1.234A7.26,7.26,0,0,1-.8,29.146a5.5,5.5,0,0,1-1.141.826A2.643,2.643,0,0,1-3.21,30.3a2.958,2.958,0,0,1-2.134-.863,7,7,0,0,1-1.54-2.848,9.131,9.131,0,0,1-1.8,2.746,2.829,2.829,0,0,1-1.967.854,3.327,3.327,0,0,1-1.076-.176,2.234,2.234,0,0,1-.909-.584,3.057,3.057,0,0,1-.631-1.048,4.468,4.468,0,0,1-.241-1.568,6.1,6.1,0,0,1,.445-2.356,6.23,6.23,0,0,1,1.15-1.846,5.322,5.322,0,0,1,1.568-1.2,3.845,3.845,0,0,1,1.716-.427.675.675,0,0,1,.482.195.651.651,0,0,1,.2.492.713.713,0,0,1-.167.464.666.666,0,0,1-.445.241,4.406,4.406,0,0,0-1.187.353,3.814,3.814,0,0,0-1.16.807,4.148,4.148,0,0,0-.872,1.345,5.011,5.011,0,0,0-.343,1.948,2.41,2.41,0,0,0,.38,1.447,1.284,1.284,0,0,0,1.1.52A1.482,1.482,0,0,0-10,28.636a2.227,2.227,0,0,0,.714-.622A8.239,8.239,0,0,0-8.452,26.7,23.436,23.436,0,0,0-7.44,24.452q-.315-1.633-.575-3.767a39.717,39.717,0,0,1-.26-4.769q0-1.15.074-2.4t.241-2.449a20.261,20.261,0,0,1,.445-2.273A10.047,10.047,0,0,1-6.837,6.9,4.066,4.066,0,0,1-5.9,5.61a1.8,1.8,0,0,1,1.225-.473,1.634,1.634,0,0,1,1.039.334,2.414,2.414,0,0,1,.7.928,5.532,5.532,0,0,1,.4,1.429,11.993,11.993,0,0,1,.13,1.837,25.292,25.292,0,0,1-.371,4.3A41.938,41.938,0,0,1-3.7,18.088q-.547,1.967-1.16,3.637T-5.975,24.6ZM-3.8,9.646q0-.464-.028-1a6.353,6.353,0,0,0-.13-1.011,3.084,3.084,0,0,0-.269-.789.5.5,0,0,0-.445-.315q-.464,0-.863.816a9.9,9.9,0,0,0-.7,2.143,26.557,26.557,0,0,0-.473,3.006,32.414,32.414,0,0,0-.176,3.386q0,1.633.13,3.266t.3,2.913q.538-1.429,1.021-2.941t.844-3.089q.362-1.577.575-3.182A24.262,24.262,0,0,0-3.8,9.646Z" transform="translate(-770.899 11491.675)" fill="#b47822"/>
    <g id="Group_19110" data-name="Group 19110" transform="translate(16 35)">
      <g id="MN59cV.tif" transform="translate(-887.899 11464.722)">
        <g id="Group_601" data-name="Group 601">
          <g id="Group_600" data-name="Group 600">
            <path id="Path_711" data-name="Path 711" d="M405.287,1442.768c-1.024,0-2.042-.014-3.047-.03l-1.736-.023a5.1,5.1,0,0,1-3.646-1.454,28.927,28.927,0,0,1-2.344-2.584,16.486,16.486,0,0,0-7.234-5.186,2.5,2.5,0,0,0-1.351-.162,1.6,1.6,0,0,0-1.367,1.193,8.589,8.589,0,0,0-.321,2.023c-.035,1.2-.027,2.4-.021,3.6l.006,1.511a1.051,1.051,0,0,1-.24.825,1.1,1.1,0,0,1-.833.234h-.23c-.813.032-1.02-.35-1.061-1.02l-.014-.209a32.119,32.119,0,0,0-1.194-6.416,26.787,26.787,0,0,1-1.161-6.7l-.042-.2-.01-2.375.105-.675c.073-.488.146-.974.256-1.453a6.3,6.3,0,0,1,1.628-3.112,1.516,1.516,0,0,1,1.407-.449,9.82,9.82,0,0,1,4.679,2.3,25.58,25.58,0,0,1,3.282,3.453q.426.51.859,1.015a46.917,46.917,0,0,0,7.352,7.126,6.284,6.284,0,0,0,4.444,1.184,9.544,9.544,0,0,0,2.547-.533,1.134,1.134,0,0,1,.779.017q1.969.769,3.936,1.545l1.2.475a4.931,4.931,0,0,1,2.7,2.174,1.813,1.813,0,0,1,.151.294,2.5,2.5,0,0,1,.066,2.021,2.137,2.137,0,0,1-1.5.946,24.5,24.5,0,0,1-3.463.484C408.347,1442.734,406.811,1442.768,405.287,1442.768ZM386.3,1432.058a4.035,4.035,0,0,1,1.411.274,17.7,17.7,0,0,1,7.768,5.572,28.056,28.056,0,0,0,2.245,2.472,3.9,3.9,0,0,0,2.791,1.1l1.743.024c2.47.038,5.024.074,7.519-.118a23.1,23.1,0,0,0,3.288-.461c.376-.083.612-.2.684-.329.051-.1.1-.35-.141-1l-.069-.118a3.726,3.726,0,0,0-2.073-1.628l-1.2-.474q-1.966-.773-3.934-1.544a9.736,9.736,0,0,1-2.784.6,7.519,7.519,0,0,1-5.279-1.432,48.141,48.141,0,0,1-7.545-7.305c-.293-.34-.582-.686-.87-1.03a24.171,24.171,0,0,0-3.12-3.291,8.633,8.633,0,0,0-4.1-2.037.291.291,0,0,0-.328.1,5.068,5.068,0,0,0-1.3,2.518c-.1.445-.172.9-.239,1.352l-.091.592v2.167a.775.775,0,0,1,.052.275,25.6,25.6,0,0,0,1.114,6.4,34.912,34.912,0,0,1,1.141,5.615v-.2c-.006-1.214-.014-2.43.021-3.643a9.86,9.86,0,0,1,.366-2.314,2.819,2.819,0,0,1,2.338-2.083A3.4,3.4,0,0,1,386.3,1432.058Z" transform="translate(-379.441 -1420.084)" fill="#b47822"/>
          </g>
        </g>
      </g>
      <g id="Group_603" data-name="Group 603" transform="translate(-789.903 11422.675)">
        <path id="Exclusion_1" data-name="Exclusion 1" d="M-713.351-4549.109a3.248,3.248,0,0,1,2.709.133,3.081,3.081,0,0,1,1.423,1.713,3.154,3.154,0,0,1-.095,2.615,3.233,3.233,0,0,1-2.049,1.6,3.119,3.119,0,0,1-.7,4.673,3.1,3.1,0,0,1-4.465-.9,3.153,3.153,0,0,1-2.733,1.5,3.246,3.246,0,0,1-2.033-.816,3.044,3.044,0,0,1-1.148-2.129,3.306,3.306,0,0,1,.75-2.3,3.2,3.2,0,0,1-2.176-1.834,3.219,3.219,0,0,1-.016-2.327,3.091,3.091,0,0,1,4.147-1.921,3.15,3.15,0,0,1,1.372-2.84,3.325,3.325,0,0,1,2.32-.484A3.058,3.058,0,0,1-713.351-4549.109Zm-1.871,3.993a1.319,1.319,0,0,0-1.316-1.331,1.324,1.324,0,0,0-1.327,1.343,1.318,1.318,0,0,0,1.319,1.305A1.313,1.313,0,0,0-715.222-4545.117Z" transform="translate(724.78 4553.149)" fill="#b47822" stroke="rgba(0,0,0,0)" stroke-miterlimit="10" stroke-width="1"/>
      </g>
    </g>
  </g>
</svg>
