<svg xmlns="http://www.w3.org/2000/svg" width="23" height="23.523" viewBox="0 0 23 23.523">
  <g id="bukurtamu2_inactive" transform="translate(-2704.266 2688.612)">
    <path id="Path_323344" data-name="Path 323344" d="M2723.481-2666.089h-12.047a2.667,2.667,0,0,1-2.785-2.53v-16.464a2.666,2.666,0,0,1,2.785-2.529h12.047a2.666,2.666,0,0,1,2.785,2.529v16.464A2.667,2.667,0,0,1,2723.481-2666.089Z" fill="none" stroke="#494949" stroke-linecap="round" stroke-linejoin="round" stroke-width="2"/>
    <g id="Group_14205" data-name="Group 14205">
      <path id="Path_323345" data-name="Path 323345" d="M2710.149-2683.819h-3.75a1.088,1.088,0,0,0-1.133,1.037v1.091" fill="none" stroke="#494949" stroke-linecap="round" stroke-linejoin="round" stroke-width="2"/>
      <path id="Path_323346" data-name="Path 323346" d="M2710.149-2677.915h-3.75a1.089,1.089,0,0,0-1.133,1.038v1.09" fill="none" stroke="#494949" stroke-linecap="round" stroke-linejoin="round" stroke-width="2"/>
      <path id="Path_323347" data-name="Path 323347" d="M2710.149-2672.01h-3.75a1.088,1.088,0,0,0-1.133,1.037v1.09" fill="none" stroke="#494949" stroke-linecap="round" stroke-linejoin="round" stroke-width="2"/>
    </g>
    <line id="Line_208" data-name="Line 208" x2="6.043" transform="translate(2716.034 -2675.511)" fill="none" stroke="#494949" stroke-linecap="round" stroke-linejoin="round" stroke-width="2"/>
    <line id="Line_209" data-name="Line 209" x2="6.043" transform="translate(2716.034 -2672.01)" fill="none" stroke="#494949" stroke-linecap="round" stroke-linejoin="round" stroke-width="2"/>
    <path id="Path_431490" data-name="Path 431490" d="M2721.771-2682.1a1.42,1.42,0,0,0-2.716-.5,1.42,1.42,0,0,0-2.716.5c-.152,1.44,2.681,2.943,2.716,2.926C2719.09-2679.158,2721.923-2680.661,2721.771-2682.1Z" fill="none" stroke="#494949" stroke-linecap="round" stroke-linejoin="round" stroke-width="2"/>
  </g>
</svg>
