<svg xmlns="http://www.w3.org/2000/svg" width="146.498" height="36.973" viewBox="0 0 146.498 36.973">
  <g id="dividerfloral24" transform="translate(-389.568 -1900.617)">
    <path id="Path_470776" data-name="Path 470776" d="M2231.171,495.527a17.6,17.6,0,0,0,3.323-.669c1.259-.469,1.205.41.019.925a21.268,21.268,0,0,1-10.142,1.411,41.924,41.924,0,0,1-11.34-2.735c-.309-.119-.612-.248-.918-.369a9.507,9.507,0,0,1,2.65,3.357,13.48,13.48,0,0,1,1.224,4.116,12.274,12.274,0,0,1,.088,2.286,19.131,19.131,0,0,1-.607,3.234,3.564,3.564,0,0,1-.14.5l-.149.264-1.389-2c-.24-.306-.487-.522-.735-.793-.256-.232-.318-.264-.488-.4-.595-.453-1.25-.865-1.928-1.286a17.343,17.343,0,0,1-4.063-3.087,9.125,9.125,0,0,1-1.932-9.418,76.194,76.194,0,0,0-11.8-4.507,30.263,30.263,0,0,0-4.865-.83A10.974,10.974,0,0,1,2192,490.33a18.943,18.943,0,0,1,1.232,4.468,35.748,35.748,0,0,1,.406,5.673c0,.412.033.913,0,1.278l-1.79-1.335c-.568-.418-1.382-.948-1.623-1.088L2188,498a32.784,32.784,0,0,1-4.487-3.014,11.637,11.637,0,0,1-3.46-4.418,7.439,7.439,0,0,1-.458-4.434,26.663,26.663,0,0,0-3.093.918,39.916,39.916,0,0,0-13.416,8.633s-.434.349-.4.027a.761.761,0,0,1,.232-.572,30.012,30.012,0,0,1,7.42-6.55,13.042,13.042,0,0,1-1.015-7.659,10.368,10.368,0,0,1,4.236-6.661,10.1,10.1,0,0,1,2.033-1.111c.179-.078.363-.146.549-.206l.289-.1c.127-.043.3-.071.442-.108.605-.143,1.238-.26,1.866-.364l.584,3.518c.131.868.233,1.755.286,2.656a17.369,17.369,0,0,1-.01,2.309,7.266,7.266,0,0,1-.627,2.448,6.978,6.978,0,0,1-1.383,1.96,25.961,25.961,0,0,1,2.684-.652.288.288,0,0,1,.233-.039,27.394,27.394,0,0,1,5.921-.453,35.562,35.562,0,0,1,8.446,1.465,15.627,15.627,0,0,1,2.835-6.8,9.986,9.986,0,0,1,6.66-3.616,9.426,9.426,0,0,1,1.22-.055,6.147,6.147,0,0,1,.681.039c.334.03.639.09.968.14.15.038.353.023.46.107l.081.476c.058.32.094.646.141.973a10.071,10.071,0,0,1,.078,1.282,11.576,11.576,0,0,1-1.053,4.817,9.451,9.451,0,0,1-5.268,5.08c4.709,1.947,9.262,4.193,13.978,5.7.917.294,1.844.554,2.775.794a12.793,12.793,0,0,1,2.649-7.006,17.023,17.023,0,0,1,2.738-2.83c.511-.423,1.046-.822,1.6-1.2l.844-.546.431-.26.224-.131.332-.178c.595-.322,1.314-.669,2.01-1.014l.419,1.642.311,1.36a19.962,19.962,0,0,1,.34,2.107,12.159,12.159,0,0,1-.275,4.465,10.09,10.09,0,0,1-2.648,4.062c-.282.262-.577.512-.885.747a21.487,21.487,0,0,0,4.086-.154C2232.2,495.42,2231.171,495.527,2231.171,495.527Z" transform="translate(-1699.856 1428.804)" fill="#ffe0d3" stroke="rgba(0,0,0,0)" stroke-width="1"/>
    <path id="Path_470777" data-name="Path 470777" d="M2166.922,495.527a17.6,17.6,0,0,1-3.323-.669c-1.259-.469-1.205.41-.019.925a21.268,21.268,0,0,0,10.142,1.411,41.924,41.924,0,0,0,11.34-2.735c.309-.119.612-.248.918-.369a9.507,9.507,0,0,0-2.65,3.357,13.48,13.48,0,0,0-1.224,4.116,12.273,12.273,0,0,0-.088,2.286,19.131,19.131,0,0,0,.607,3.234,3.564,3.564,0,0,0,.14.5l.149.264,1.389-2c.24-.306.487-.522.735-.793.256-.232.318-.264.488-.4.595-.453,1.25-.865,1.928-1.286a17.342,17.342,0,0,0,4.063-3.087,9.125,9.125,0,0,0,1.932-9.418,76.194,76.194,0,0,1,11.8-4.507,30.263,30.263,0,0,1,4.865-.83,10.974,10.974,0,0,0-4.028,4.807,18.943,18.943,0,0,0-1.232,4.468,35.748,35.748,0,0,0-.406,5.673c0,.412-.033.913,0,1.278l1.79-1.335c.568-.418,1.382-.948,1.623-1.088L2210.1,498a32.784,32.784,0,0,0,4.487-3.014,11.637,11.637,0,0,0,3.46-4.418,7.439,7.439,0,0,0,.458-4.434,26.663,26.663,0,0,1,3.093.918,39.916,39.916,0,0,1,13.416,8.633s.434.349.4.027a.761.761,0,0,0-.232-.572,30.012,30.012,0,0,0-7.42-6.55,13.042,13.042,0,0,0,1.015-7.659,10.368,10.368,0,0,0-4.236-6.661,10.1,10.1,0,0,0-2.033-1.111c-.179-.078-.363-.146-.549-.206l-.289-.1c-.127-.043-.3-.071-.442-.108-.605-.143-1.238-.26-1.866-.364l-.584,3.518c-.131.868-.233,1.755-.286,2.656a17.369,17.369,0,0,0,.01,2.309,7.266,7.266,0,0,0,.627,2.448,6.978,6.978,0,0,0,1.383,1.96,25.961,25.961,0,0,0-2.684-.652.288.288,0,0,0-.233-.039,27.394,27.394,0,0,0-5.921-.453,35.564,35.564,0,0,0-8.446,1.465,15.627,15.627,0,0,0-2.835-6.8,9.986,9.986,0,0,0-6.66-3.616,9.426,9.426,0,0,0-1.22-.055,6.147,6.147,0,0,0-.681.039c-.334.03-.639.09-.968.14-.15.038-.353.023-.46.107l-.081.476c-.058.32-.094.646-.141.973a10.071,10.071,0,0,0-.078,1.282,11.576,11.576,0,0,0,1.053,4.817,9.451,9.451,0,0,0,5.268,5.08c-4.709,1.947-9.262,4.193-13.978,5.7-.917.294-1.844.554-2.775.794a12.793,12.793,0,0,0-2.649-7.006,17.021,17.021,0,0,0-2.738-2.83c-.511-.423-1.046-.822-1.6-1.2l-.844-.546-.431-.26-.224-.131-.332-.178c-.595-.322-1.314-.669-2.01-1.014l-.419,1.642-.311,1.36a19.962,19.962,0,0,0-.34,2.107,12.159,12.159,0,0,0,.275,4.465,10.09,10.09,0,0,0,2.648,4.062c.282.262.577.512.885.747a21.487,21.487,0,0,1-4.086-.154C2165.9,495.42,2166.922,495.527,2166.922,495.527Z" transform="translate(-1772.604 1428.804)" fill="#ffe0d3" stroke="rgba(0,0,0,0)" stroke-width="1"/>
  </g>
</svg>
