<svg xmlns="http://www.w3.org/2000/svg" width="34.814" height="31.497" viewBox="0 0 34.814 31.497">
  <path id="mempelaifloral24" d="M420.206-184.2c.163-6.953,5.729-10.539,7.714-11.937,3.774-2.658,8.727-4.084,13.182-2.876a5.505,5.505,0,0,1,2.821,1.638,3.069,3.069,0,0,1,.594,3.09c-.568,1.329-2.142,1.88-3.566,2.128-4.225.737-9.214-2.023-13.031-3.98-1.5-4.453-4.645-5.68-8.177-8.778-1.038-.91-2.274-1.883-3.638-1.666-1.8.286-2.636,2.528-2.337,4.329a6.611,6.611,0,0,0,1.611,3.334,8.847,8.847,0,0,0,5.521,2.593,31.878,31.878,0,0,0,6.837-.227c-.634-4.378-2.333-8.683-3.823-12.848a7.6,7.6,0,0,1-.651-2.944,2.413,2.413,0,0,1,1.665-2.284,3.027,3.027,0,0,1,2.6,1.093,11.892,11.892,0,0,1,3.331,7.877,18.506,18.506,0,0,1-1.8,8.481c1.045-.706,1.366-2.064,1.761-3.262a15.334,15.334,0,0,1,9.064-9.422,7.137,7.137,0,0,1,3.68-.515,3.52,3.52,0,0,1,2.8,2.224c.512,1.627-.578,3.341-1.885,4.437-2.142,1.8-4.894,2.663-7.567,3.486-2.975.916-5.706,2.718-8.681,3.635" transform="translate(-412.7 215.672)" fill="none" stroke="#b47822" stroke-miterlimit="10" stroke-width="2"/>
</svg>
