<svg xmlns="http://www.w3.org/2000/svg" width="13.667" height="13.673">
    <defs>
        <style>
            .cls-1{fill:#fff;fill-rule:evenodd}
        </style>
    </defs>
    <g id="miniig" transform="translate(-297.638 -1158.45)">
        <path id="Path_214096" data-name="Path 214096" class="cls-1" d="M304.486 1158.467c.8 0 1.592-.019 2.388.005a5.676 5.676 0 0 1 2.214.4 3.436 3.436 0 0 1 2.056 2.684 9.786 9.786 0 0 1 .147 1.573c.02 1.438.017 2.876 0 4.314a6.679 6.679 0 0 1-.3 2.163 3.334 3.334 0 0 1-2.494 2.271 9.3 9.3 0 0 1-1.881.218q-2.143.047-4.29 0a8.683 8.683 0 0 1-1.857-.214 3.373 3.373 0 0 1-2.66-2.843 9.56 9.56 0 0 1-.152-1.67 109.782 109.782 0 0 1 0-4.217 8.606 8.606 0 0 1 .238-1.975 3.3 3.3 0 0 1 2.821-2.555 19.5 19.5 0 0 1 2.352-.167c.472-.022.943 0 1.415 0zm-5.648 6.816c.032 1.016.044 2.033.1 3.046a3.211 3.211 0 0 0 .251 1.058 2.361 2.361 0 0 0 2.277 1.432c1.551.058 3.1.066 4.655.059a9.619 9.619 0 0 0 2.008-.171 2.321 2.321 0 0 0 1.874-2.413c.065-1.55.068-3.1.06-4.656a9.746 9.746 0 0 0-.168-2.009 2.3 2.3 0 0 0-2.385-1.875c-1.664-.071-3.332-.068-5-.064a7.405 7.405 0 0 0-1.737.177 2.338 2.338 0 0 0-1.839 2.369c-.073 1.012-.07 2.03-.1 3.046"/>
        <path id="Path_214097" data-name="Path 214097" class="cls-1" d="M305.661 1169.961a3.5 3.5 0 1 1 3.482 3.518 3.495 3.495 0 0 1-3.482-3.518m3.5 2.29a2.275 2.275 0 1 0-2.274-2.28 2.28 2.28 0 0 0 2.274 2.28" transform="translate(-4.691 -4.692)"/>
        <path id="Path_214098" data-name="Path 214098" class="cls-1" d="M321.722 1164.184a.779.779 0 0 1 .806.818.82.82 0 0 1-.805.811.839.839 0 0 1-.828-.821.808.808 0 0 1 .828-.808" transform="translate(-13.599 -3.352)"/>
    </g>
</svg>
