<svg id="prokes4" xmlns="http://www.w3.org/2000/svg" width="84.694" height="84.67" viewBox="0 0 84.694 84.67">
    <defs>
        <style>
            .cls-2{fill:#ffc5ac}.cls-4{fill:#f7836e}.cls-5{fill:#fff}
        </style>
    </defs>
    <path id="Path_429101" data-name="Path 429101" d="M397.232 76.175v.214a42.341 42.341 0 0 1-42.347 42.111 41.79 41.79 0 0 1-15.386-2.906 42.09 42.09 0 0 1-26.389-32.607 40.244 40.244 0 0 1-.572-6.812 42.347 42.347 0 0 1 84.694 0z" transform="translate(-312.538 -33.828)" style="fill:#ffe9da"/>
    <g id="Group_13923" data-name="Group 13923" transform="translate(0 14.575)">
        <g id="Group_9850" data-name="Group 9850" transform="translate(0 3.669)">
            <g id="Group_5874-2" data-name="Group 5874-2" transform="translate(10.38 9.798)">
                <path id="Path_30664" data-name="Path 30664" class="cls-2" d="m354.579 60.935-9.82 10.618-9.894-14.717 18.656-6.659z" transform="translate(-292.066 -39.281)"/>
                <path id="Path_30665" data-name="Path 30665" d="M322.1 45.6s7.369 6.04 27.707 2.834l13.712 16.758 8.9 8.224a3.83 3.83 0 0 1 .586 4.99 2.276 2.276 0 0 1-3.292.66s.588 5.976-5.623 4.17c0 0-1.922 5.016-6.936 3.1 0 0 .233 2.391-3.468 1.548s-24.353-14.5-24.353-14.5L316.9 64.06z" transform="translate(-316.896 -45.602)" style="fill:#eda585"/>
                <path id="Path_30666" data-name="Path 30666" class="cls-2" d="M356.36 48.259a27.915 27.915 0 0 1-10.5-1.31 15.08 15.08 0 0 0-14.247 2.336c-3.273 2.6-6.226 11.02-5.271 12.785s5.118 4.325 9.093-5.721l3.585-.35s4.628 11.613 14.207 9.465 11.719-3.564 11.719-3.564z" transform="translate(-304.095 -44.91)"/>
                <rect id="Rectangle_3677" data-name="Rectangle 3677" class="cls-2" width="9.34" height="5.944" rx="1.132" transform="rotate(-50.6 44.593 1.978)"/>
                <rect id="Rectangle_3678" data-name="Rectangle 3678" class="cls-2" width="9.34" height="5.944" rx="1.132" transform="rotate(-50.6 38.071 4.453)"/>
                <rect id="Rectangle_3679" data-name="Rectangle 3679" class="cls-2" width="10.189" height="5.944" rx="1.132" transform="rotate(-50.6 50.451 -1.893)"/>
                <rect id="Rectangle_3680" data-name="Rectangle 3680" class="cls-2" width="6.794" height="4.151" rx=".791" transform="rotate(-50.6 55.513 -7.46)"/>
            </g>
            <path id="Path_30667" data-name="Path 30667" class="cls-4" d="M345.065 64.64a5.837 5.837 0 0 1-1.8-1.715 27.44 27.44 0 0 0-1.805-1.836 48.431 48.431 0 0 0-3.994-3.284c-.781-.588-1.577-1.16-2.37-1.736a.192.192 0 0 0-.219.314 49.566 49.566 0 0 1 8.065 6.755 6.291 6.291 0 0 0 2 1.862c.226.1.353-.267.126-.362z" transform="translate(-281.781 -21.383)"/>
            <path id="Path_30668" data-name="Path 30668" class="cls-4" d="M342.787 66.386a5.871 5.871 0 0 1-1.8-1.717 28.917 28.917 0 0 0-1.805-1.834 48.331 48.331 0 0 0-3.994-3.284c-.784-.588-1.577-1.16-2.37-1.739a.2.2 0 0 0-.269.05.191.191 0 0 0 .05.267 49.353 49.353 0 0 1 8.065 6.755 6.29 6.29 0 0 0 2 1.862c.226.1.352-.267.126-.362z" transform="translate(-284.94 -18.98)"/>
            <path id="Path_30669" data-name="Path 30669" class="cls-4" d="M337.9 66.033c-.574-.129-.793-.791-1.1-1.258a10.869 10.869 0 0 0-1.069-1.377 17.792 17.792 0 0 0-2.572-2.27c-.519-.386-1.05-.757-1.582-1.129-.133-.093-.4.283-.269.374a18.21 18.21 0 0 1 5.156 4.7c.343.522.588 1.208 1.229 1.355.169.038.374-.362.2-.4z" transform="translate(-286.662 -15.929)"/>
            <path id="Path_30670" data-name="Path 30670" class="cls-5" d="m337.224 49.919 13.769 19.468a1.373 1.373 0 0 0 1.912.329 1.4 1.4 0 0 0 .112-.088l3.613-3.153a1.376 1.376 0 0 0 .2-1.846L342.716 45.3a1.372 1.372 0 0 0-1.92-.3 1.644 1.644 0 0 0-.124.1l-3.26 3.02a1.374 1.374 0 0 0-.188 1.799z" transform="translate(-278.779 -37.007)"/>
            <path id="Path_429102" data-name="Path 429102" d="M359.87 65.591v.214l-6.645 3.311-13.647-18.7 12.337-8.693a2.265 2.265 0 0 1 .4-.238 42.017 42.017 0 0 1 7.555 24.106z" transform="translate(-275.176 -41.488)" style="fill:#d76566"/>
            <path id="Path_429103" data-name="Path 429103" d="M335.188 52.246a1.369 1.369 0 0 1-.024.691c0 .024-.024.024-.024.048l-7.1 18.744a1.561 1.561 0 0 1-1.858.929l-2.239-.548a1.529 1.529 0 0 0-1.667.6l-1.024 1.453a1.617 1.617 0 0 1-2.215.357l-5.93-3.977a40.244 40.244 0 0 1-.572-6.812 42.168 42.168 0 0 1 5.5-20.888c.072 0 .119.048.191.071.024.024.071.024.1.048l12.742 4.049a1.507 1.507 0 0 1 .762 1.739 1.319 1.319 0 0 0-.048.429 1.5 1.5 0 0 0 1.072 1.453l1.286.429a1.455 1.455 0 0 1 1.048 1.185z" transform="translate(-312.538 -39.623)" style="fill:#3c3b37"/>
        </g>
        <circle id="Ellipse_712" data-name="Ellipse 712" cx="11.392" cy="11.392" r="11.392" transform="translate(31.787)" style="fill:#ff4e4b"/>
        <g id="Group_9852" data-name="Group 9852" transform="translate(38.859 7.091)">
            <g id="Group_9851" data-name="Group 9851">
                <path id="Path_72265" data-name="Path 72265" class="cls-5" d="m332.525 49.56-1.7 1.7a.86.86 0 0 1-1.212 0l-.474-.476a.86.86 0 0 1 0-1.212l1.7-1.7a.855.855 0 0 0 0-1.21l-1.729-1.732a.852.852 0 0 1 0-1.208l.543-.543a.86.86 0 0 1 1.212 0l1.732 1.732a.86.86 0 0 0 1.212 0l1.712-1.715a.857.857 0 0 1 1.21 0l.474.476a.852.852 0 0 1 0 1.208l-1.712 1.712a.855.855 0 0 0 0 1.212l1.732 1.732a.854.854 0 0 1 0 1.208l-.545.543a.854.854 0 0 1-1.208 0l-1.732-1.732a.857.857 0 0 0-1.21 0z" transform="translate(-328.854 -42.925)"/>
            </g>
        </g>
    </g>
</svg>
