<svg id="prokes1" xmlns="http://www.w3.org/2000/svg" width="84.694" height="84.67" viewBox="0 0 84.694 84.67">
    <defs>
        <style>
            .cls-3{fill:#fff}
        </style>
    </defs>
    <path id="Path_429089" data-name="Path 429089" d="M179.3 76.175a42.341 42.341 0 0 1-42.351 42.325 41.79 41.79 0 0 1-15.386-2.906 42.708 42.708 0 0 1-22.674-20.84A42.349 42.349 0 1 1 179.3 76.175z" transform="translate(-94.602 -33.828)" style="fill:#ffe9da"/>
    <g id="Group_13918" data-name="Group 13918" transform="translate(4.287 11.14)">
        <path id="Path_429090" data-name="Path 429090" d="M148.133 54.755q-.036.322-.143.857a75.683 75.683 0 0 1-2.5 7.669 72.453 72.453 0 0 1-1.048 2.739c-.81 2-1.62 3.835-2.263 5.073a8.218 8.218 0 0 1-.762 1.262c-1.739 2.167-11.718 16.6-15.719 18.982-2.668 1.62-9.908 7.455-17.291 11.718a42.97 42.97 0 0 1-12-14.767 18.9 18.9 0 0 0 6.883-6.359c-.119.143-1.453-7.407.786-12.695 1.834-4.287.738-11.5.286-14.052a1.707 1.707 0 0 1 .691-1.715c1.119-.786 3.1-1.6 4.478 1.072 1.572 3.025 2.6 9.313 2.977 12.028.143.81.191 1.286.191 1.286s2.239-2.191 4.621-5v-.024a9.11 9.11 0 0 0 .453-.548 36.5 36.5 0 0 0 4.12-5.93c.357-.691.738-1.453 1.119-2.286 1.31-2.715 2.787-6.026 4.168-8.622 1.358-2.572 2.572-4.454 3.358-4.406 1.834.1 1.453 2.572 1.453 2.572l-1.024 2.429a.023.023 0 0 1-.024.024l-3.93 9.479-1.453 3.525-.762 1.81c.143-.238.476-.857.977-1.739.453-.834 1.048-1.905 1.715-3.12.976-1.715 2.12-3.715 3.311-5.74v-.024c.5-.881 1.024-1.739 1.524-2.6v-.024c2.62-4.382 5.121-8.288 6.1-8.836 2.358-1.334 2.167 2.334 2.167 2.334L133.724 57.3l-2.12 4.978a48.5 48.5 0 0 0 3.906-4.573 36.025 36.025 0 0 0 4.93-8.455c2.644-6.788 3.025-6.6 4.478-5a.907.907 0 0 1 .167.643 19.908 19.908 0 0 1-1.1 4.74 109.584 109.584 0 0 1-2.1 5.811v.024c-.691 1.81-1.405 3.6-2.048 5.168-1.167 2.834-2.1 4.978-2.239 5.335l3.144-4 1.5-1.882 2.477-5.145h.024l.929-1.929a1.21 1.21 0 0 1 1.62-.6 1.159 1.159 0 0 1 .333.262.5.5 0 0 1 .1.143 2.416 2.416 0 0 1 .408 1.935z" transform="translate(-96.402 -38.505)" style="fill:#eda585"/>
        <circle id="Ellipse_703" data-name="Ellipse 703" class="cls-3" cx="10.018" cy="10.018" r="10.018" transform="translate(14.306 23.737)"/>
        <circle id="Ellipse_704" data-name="Ellipse 704" class="cls-3" cx="7.591" cy="7.591" r="7.591" transform="translate(12.706 39.188)"/>
        <circle id="Ellipse_705" data-name="Ellipse 705" class="cls-3" cx="9.433" cy="9.433" r="9.433" transform="translate(26.752 18.735)"/>
        <circle id="Ellipse_706" data-name="Ellipse 706" class="cls-3" cx="5.863" cy="5.863" r="5.863" transform="translate(20.888 15.567)"/>
        <circle id="Ellipse_707" data-name="Ellipse 707" class="cls-3" cx="8.276" cy="8.276" r="8.276" transform="translate(40.046 16.441)"/>
        <circle id="Ellipse_708" data-name="Ellipse 708" class="cls-3" cx="8.276" cy="8.276" r="8.276" transform="translate(48.323 21.92)"/>
        <circle id="Ellipse_709" data-name="Ellipse 709" class="cls-3" cx="2.648" cy="2.648" r="2.648" transform="translate(46.476 6.329)"/>
        <circle id="Ellipse_710" data-name="Ellipse 710" class="cls-3" cx="3.602" cy="3.602" r="3.602" transform="translate(29.534 .648)"/>
        <circle id="Ellipse_711" data-name="Ellipse 711" class="cls-3" cx="2.381" cy="2.381" r="2.381" transform="translate(34.342 8.978)"/>
        <path id="Path_429091" data-name="Path 429091" d="M163.055 60.552c-.738 2.668-7.193 14.5-9.217 16.434-2.048 1.905-14 14.719-18.315 16.505-2.906 1.215-11.051 6-19.03 9.17a42.322 42.322 0 0 1-18.22-13.695c.048-.31.1-.643.167-.977a26.793 26.793 0 0 0 11.218-3.025 17.933 17.933 0 0 0 5.049-4.049 21.2 21.2 0 0 1 .333-5.6 23.852 23.852 0 0 1 .929-3.858 16.061 16.061 0 0 1 1.358-2.977c1.477-2.429 2.048-6.145 2.263-9.241.071-1.262.1-2.406.1-3.334 0-.524-.024-.953-.024-1.31a1.665 1.665 0 0 1 .929-1.572 3.538 3.538 0 0 1 2.382-.429l.214.071a2.1 2.1 0 0 1 .667.381 3.577 3.577 0 0 1 1.024 1.667 11.3 11.3 0 0 1 .5 2.1v.024a18.6 18.6 0 0 1 .357 2.429v.024a81.545 81.545 0 0 1 .333 9.074s.834-.6 2.048-1.548a68.923 68.923 0 0 0 6.74-6.1v-.024a21.79 21.79 0 0 0 1.977-2.382c.5-.691 1.024-1.477 1.6-2.31 1.572-2.358 3.382-5.145 5-7.407.619-.834 1.191-1.6 1.715-2.239 1.048-1.262 1.929-2.024 2.453-1.929 1.81.357 1.1 2.739 1.1 2.739l-1.715 2.882-4.073 6.764-3.858 6.454c.238-.333 1.31-1.762 2.81-3.715 1.786-2.334 4.168-5.407 6.478-8.241 3.263-4 6.359-7.55 7.407-7.955 2.5-.977 1.786 2.62 1.786 2.62l-5.06 8.267-2.144 3.525-4.763 7.812a46.67 46.67 0 0 0 9.67-10.051 14.97 14.97 0 0 0 .976-1.526c3.6-6.359 3.954-6.1 5.145-4.311.5.762-1.334 4.621-3.573 8.789-3.025 5.549-6.836 11.67-6.836 11.67l5.478-5.168 2.239-3.287 2.191-3.239a1.215 1.215 0 0 1 1.667-.333.961.961 0 0 1 .31.31 2.535 2.535 0 0 1 .215 2.121z" transform="translate(-93.818 -32.036)" style="fill:#ffc5ac"/>
    </g>
</svg>
