<svg id="prokes2putih" xmlns="http://www.w3.org/2000/svg" xmlns:xlink="http://www.w3.org/1999/xlink" width="73.404" height="73.404" viewBox="0 0 73.404 73.404">
  <defs>
    <clipPath id="clip-path">
      <rect id="Rectangle_3495" data-name="Rectangle 3495" width="73.404" height="73.404" fill="none" stroke="#fff" stroke-width="1"/>
    </clipPath>
  </defs>
  <g id="Group_16142" data-name="Group 16142" clip-path="url(#clip-path)">
    <g id="Group_16141" data-name="Group 16141" transform="translate(8.811 11.442)">
      <g id="Group_16138" data-name="Group 16138">
        <g id="Group_16131" data-name="Group 16131" transform="translate(13.174 14.354)">
          <path id="Path_424490" data-name="Path 424490" d="M575.287,989.649" transform="translate(-544.315 -989.649)" fill="none" stroke="#fff" stroke-miterlimit="10" stroke-width="2"/>
          <line id="Line_1" data-name="Line 1" y1="11.274" x2="1.138" transform="translate(0 14.973)" fill="none" stroke="#fff" stroke-miterlimit="10" stroke-width="2"/>
          <path id="Path_424491" data-name="Path 424491" d="M554.48,1039.586c-.093.018-2.844,5.076-2.844,5.076" transform="translate(-534.343 -1010.704)" fill="none" stroke="#fff" stroke-miterlimit="10" stroke-width="2"/>
          <path id="Path_424492" data-name="Path 424492" d="M575.158,989.649l.952,9.925a.959.959,0,0,1-.418.886l-.711.48,2.287,5.747" transform="translate(-544.186 -989.649)" fill="none" stroke="#fff" stroke-miterlimit="10" stroke-width="2"/>
        </g>
        <g id="Group_16132" data-name="Group 16132" transform="translate(10.652)">
          <path id="Path_424493" data-name="Path 424493" d="M551.1,968a9.064,9.064,0,0,0-4.33-1c-8.09.117-10.079-3.795-14.288-1.367s-7.378,2.843-8.178,6.62c-.714,3.368-5.814,1.6-5.833,6.88v.005c0,.654-1.254,2.842-1.085,3.726,1.55,8.1,3.761,12.2,4.969,12.861,0,0,5.927-.017,5.517-3.661s.758-5.9,2.742-6.891c1.551-.773,3.894,1.389,4.053,2.6.069.522.937.343,1.335,0,1.156-1,2.773-2.724,2.632-4.426a7.18,7.18,0,0,1,1.308-4.193c1.1-1.641,2.8-2.872,4.778-2.412,2.495.582,4.174,2.259,6.351,2.608.009-2.991,6.56.8.958-9.531C552.035,969.81,551.73,968.289,551.1,968Z" transform="translate(-517.376 -964.83)" fill="none" stroke="#fff" stroke-miterlimit="10" stroke-width="2"/>
        </g>
        <g id="Group_16133" data-name="Group 16133" transform="translate(38.209 22.096)">
          <path id="Path_424494" data-name="Path 424494" d="M570.352,1004.618a8.172,8.172,0,0,0-5.146-.673l-.183-.733a8.8,8.8,0,0,1,5.672.733Z" transform="translate(-565.023 -1003.033)" fill="none" stroke="#fff" stroke-width="1"/>
        </g>
        <g id="Group_16135" data-name="Group 16135" transform="translate(39.199 24.849)">
          <g id="Group_16134" data-name="Group 16134">
            <path id="Path_424495" data-name="Path 424495" d="M569.16,1009.595a2.925,2.925,0,0,1-2.426-1.415l.65-.385-.324.192.324-.194a2.13,2.13,0,0,0,2.787.8l.319.684A3.122,3.122,0,0,1,569.16,1009.595Z" transform="translate(-566.734 -1007.793)" fill="none" stroke="#fff" stroke-width="1"/>
          </g>
        </g>
        <g id="Group_16136" data-name="Group 16136" transform="translate(0 40.527)">
          <path id="Path_424496" data-name="Path 424496" d="M508.359,1035.843s12.526-5.63,23.654,10.642c-.027-.142-.206,4.161-.206,4.161s3.533-.234,4.907,1.711,4.887,14.572,8.252,21.189,3.178,20.591,6.178,26.3,6.228,21.577,6.769,25.4-10.4-5.289-37.985,3.057c-2.429.268-6.906-3.818-6.906-3.818s.311-13.329-2.432-18.692-6.688-15.5-7.694-20.757-5.93-19.769-3.041-26.358,3.565-11.281,9.707-16.579c.056-.453-1.2-6.252-1.2-6.252" transform="translate(-498.959 -1034.902)" fill="none" stroke="#fff" stroke-miterlimit="10" stroke-width="2"/>
        </g>
        <g id="Group_16137" data-name="Group 16137" transform="translate(7.341 62.868)">
          <path id="Path_424497" data-name="Path 424497" d="M530.246,1073.528l7.331,31.9s2.036.567,2.118,1.34-.337,2.343.527,2.747,1.658,1,1.668,1.971c.04,3.706,11.926,10.914,12.9,12.193.822,1.074-1.492,8.654-2.253,11.052a.694.694,0,0,1-.936.427l-17.658-7.49s-3.065-.684-3.211-1.444-6.137-4.884-6.855-6.777-5.172-5.483-5.172-5.483l-7.058-24.52" transform="translate(-511.651 -1073.528)" fill="none" stroke="#fff" stroke-width="1"/>
        </g>
      </g>
      <g id="Group_16139" data-name="Group 16139" transform="translate(20.715 19.766)">
        <path id="Path_424498" data-name="Path 424498" d="M542.466,1015.017c-5.8-2.525-6.707-5.751-7.31-7.831a7.335,7.335,0,0,1,.444-5.835,4.766,4.766,0,0,1,3.969-2.343,1.787,1.787,0,0,1,1.554.846c2.508,4.71,3.637,4.631,3.682,4.645l-.13.743c-.227-.028-1.517.043-4.22-5.032a1.079,1.079,0,0,0-.927-.447,4,4,0,0,0-3.3,2.013,6.465,6.465,0,0,0-.344,5.2c.566,1.953,1.366,4.947,6.886,7.35Z" transform="translate(-534.775 -999.005)" fill="none" stroke="#fff" stroke-width="1"/>
      </g>
      <g id="Group_16140" data-name="Group 16140" transform="translate(27.734 25.335)">
        <path id="Path_424499" data-name="Path 424499" d="M563.878,1011.342c-4.67.334-9.855-1.1-14.292-2.584s-2.436,10.775-.54,14.427c1.947,3.753,4.981,4.316,7.6,4.446s8.916-5.294,9.223-9.1C566.073,1016.029,564.667,1011.285,563.878,1011.342Z" transform="translate(-546.91 -1008.634)" fill="none" stroke="#fff" stroke-miterlimit="10" stroke-width="2"/>
      </g>
    </g>
  </g>
</svg>
