<svg id="prokes3" xmlns="http://www.w3.org/2000/svg" width="84.67" height="84.67" viewBox="0 0 84.67 84.67">
    <defs>
        <style>
            .cls-4{fill:#fff}.cls-5{fill:#3c3b37}
        </style>
    </defs>
    <path id="Path_429094" data-name="Path 429094" d="M324.568 76.175a42.33 42.33 0 0 1-38.917 42.18q-1.679.143-3.43.143a43.69 43.69 0 0 1-3.977-.191 42.334 42.334 0 1 1 46.325-42.133z" transform="translate(-239.898 -33.828)" style="fill:#ffe9da"/>
    <g id="Group_9845" data-name="Group 9845" transform="translate(5.264 37.088)">
        <g id="Group_9841" data-name="Group 9841" transform="translate(0 3.958)">
            <g id="Group_9837" data-name="Group 9837">
                <g id="Group_9831" data-name="Group 9831" transform="translate(0 17.152)">
                    <path id="Path_429095" data-name="Path 429095" d="M275.19 84.545a42.312 42.312 0 0 1-33.082-21.7 20.6 20.6 0 0 1 6.859-3.573 18.74 18.74 0 0 1 5.359-.977 25.345 25.345 0 0 1 2.691 0 27.835 27.835 0 0 1 6.193.977 54.07 54.07 0 0 1 6.55 6.478 10.793 10.793 0 0 1 1.1 1.62c1.758 3.53 3.211 12.507 4.33 17.175z" transform="translate(-242.108 -58.263)" style="fill:#d76566"/>
                </g>
                <g id="Group_9832" data-name="Group 9832" transform="translate(2.301 .607)">
                    <path id="Path_72245" data-name="Path 72245" d="M245.613 65.3a2.246 2.246 0 0 1 .455-.019c2.606.176.738 5.776 2.31 6.209 1.662.455 7.1-.453 7.8-1.61s-2.615-3.873-.453-5.735 6.29-5.938 3.17-9.913-7.1-2.968-9.308-2.263c0 0-3.573 2.668-3.623 3.975a2.9 2.9 0 0 1-1.072 1.9 7.718 7.718 0 0 1-1.243.917c-.749.455-1.306 6.995 1.964 6.539z" transform="translate(-243.074 -51.316)" style="fill:#ffc5ac"/>
                </g>
                <g id="Group_9833" data-name="Group 9833" transform="translate(9.37 8.283)">
                    <path id="Path_72246" data-name="Path 72246" class="cls-4" d="M249.445 54.844a.08.08 0 0 0 .074-.086.081.081 0 0 0-.071-.076l-3.32-.143a.086.086 0 0 0-.086.079.08.08 0 0 0 .079.083l3.32.143z" transform="translate(-246.042 -54.539)"/>
                </g>
                <g id="Group_9834" data-name="Group 9834" transform="translate(9.373 10.669)">
                    <path id="Path_72247" data-name="Path 72247" class="cls-4" d="m246.123 57.216.031-.007 3.465-1.51a.078.078 0 0 0 .055-.1.08.08 0 0 0-.1-.057l-.019.007-3.465 1.51a.081.081 0 0 0 .033.155z" transform="translate(-246.043 -55.541)"/>
                </g>
                <g id="Group_9835" data-name="Group 9835" transform="translate(5.775)">
                    <path id="Path_72248" data-name="Path 72248" class="cls-5" d="M248.608 51.449a6.1 6.1 0 0 0-3.52 2.01c-.479.562-.764 1.131-.369 1.446.977.772 3.006-2.179 3.608-1.777s-2.063 3.12-.4 5.283 3.773 3.975 1.963 7.2 4.337 2.6 3.947 4.956-1.062 5.44 2.291 6.447 12.44.414 13.016-5.5c.41-4.218-3.518-2.506-4.592-6.059s-.414-5.1-4.239-6.909c-3.654-1.736-.339-9.26-11.705-7.097z" transform="translate(-244.533 -51.061)"/>
                </g>
                <g id="Group_9836" data-name="Group 9836" transform="translate(2.064 6.894)">
                    <path id="Path_72249" data-name="Path 72249" class="cls-4" d="M245.613 61.515c.167-.021 4.68-2.3 4.613-2.332a3.4 3.4 0 0 1 0-3.756l-5.33-1.369a7.935 7.935 0 0 1-1.243.917c-.753.452-1.311 6.993 1.96 6.54z" transform="translate(-242.837 -53.815)"/>
                    <path id="Path_72250" data-name="Path 72250" class="cls-4" d="M243.323 60.155c-.636-1.8-.331-4.847.341-5.249a7.3 7.3 0 0 0 1.205-.886.248.248 0 0 1 .224-.057l5.33 1.369a.242.242 0 0 1 .174.3.236.236 0 0 1-.04.086 3.171 3.171 0 0 0 .012 3.482.248.248 0 0 1 .033.169c-.024.155-.026.176-2.379 1.362a20.086 20.086 0 0 1-2.439 1.167 2.93 2.93 0 0 1-.355.026 2.226 2.226 0 0 1-2.106-1.769zm6.712-.912a3.658 3.658 0 0 1-.045-3.523l-4.89-1.255a8.2 8.2 0 0 1-1.186.857c-.324.219-.8 2.937-.1 4.775a1.706 1.706 0 0 0 1.884 1.319c.338-.116 3.53-1.727 4.337-2.173z" transform="translate(-242.975 -53.956)"/>
                </g>
            </g>
            <g id="Group_9838" data-name="Group 9838" transform="translate(5.197 .53)">
                <path id="Path_72251" data-name="Path 72251" class="cls-5" d="m244.311 54.006.16-.029a1.039 1.039 0 0 1 .183-.812c.819-1.188 3.78-1.717 3.808-1.722l-.029-.16c-.121.021-3.056.545-3.913 1.789a1.207 1.207 0 0 0-.209.934z" transform="translate(-244.29 -51.284)"/>
            </g>
            <g id="Group_9839" data-name="Group 9839" transform="translate(22.803 8.283)">
                <path id="Path_72252" data-name="Path 72252" class="cls-5" d="M259.985 63.49v-.162c-.045 0-4.473-.057-4.873-3.739a6.157 6.157 0 0 0-3.368-5.049l-.062.15a5.993 5.993 0 0 1 3.268 4.91c.414 3.832 4.987 3.89 5.035 3.89z" transform="translate(-251.682 -54.539)"/>
            </g>
            <g id="Group_9840" data-name="Group 9840" transform="translate(14.108 18.746)">
                <path id="Path_72253" data-name="Path 72253" class="cls-5" d="m251.424 66.73.067-.148c-1.924-.869-3.051-2.029-3.258-3.351-.3-1.9 1.265-4.185 1.279-4.208l-.133-.091c-.064.1-1.61 2.36-1.308 4.323.216 1.381 1.374 2.582 3.353 3.475z" transform="translate(-248.032 -58.932)"/>
            </g>
        </g>
        <g id="Group_9844" data-name="Group 9844" transform="translate(40.489)">
            <path id="Path_429096" data-name="Path 429096" class="cls-5" d="M292.786 61.981a42.345 42.345 0 0 1-33.678 21.793c.214-4.835 1.048-16.886 3.525-19.554 3.12-3.382 7-2.81 11.027-4.668 0 0 .143-.048.381-.143 3.93-1.477 11.289.453 11.956.619l.048.024a38.607 38.607 0 0 0 6.335 1.834c.144.024.287.071.406.095z" transform="translate(-259.108 -36.334)"/>
            <path id="Path_72255" data-name="Path 72255" d="M265.217 70.985A12.542 12.542 0 0 0 272.01 74c4.216.5 5.588-2.51 5.588-2.51l-.669-.331c-.669-.336 1.005-4.685 1.005-4.685s.226 0 .584-.038a9.187 9.187 0 0 0 2.727-.631c1.441-.636 1.138-7.093 1.138-7.093l-1.983-1.274-.7-.445a.745.745 0 0 1-.338-.545l-.083-.734a2.209 2.209 0 0 0-.531-1.205l-2.022-2.325c-3.646-3.277-7.662-1.005-10.406 2.275s2.977 7.5 3.111 11.344-4.214 5.182-4.214 5.182z" transform="translate(-250.667 -47.76)" style="fill:#eda585"/>
            <g id="Group_9842" data-name="Group 9842" transform="translate(19.987 14.717)">
                <path id="Path_72256" data-name="Path 72256" class="cls-4" d="M271.03 57.184a.08.08 0 0 0 .081-.081.085.085 0 0 0-.05-.074l-3.446-1.443a.081.081 0 0 0-.067.148L271 57.18z" transform="translate(-267.5 -55.579)"/>
            </g>
            <path id="Path_72257" data-name="Path 72257" class="cls-5" d="M265.051 61.349c1.808 2.81 5.623 4.818 5.29 6.29s1.536-.133 1.805-1.036.562-2.067.562-2.067a2.251 2.251 0 0 1-1.493-2.753c.233-1.465 1.258-1.515 2.1-1.057a2.51 2.51 0 0 1 .3.193 2.448 2.448 0 0 1 .767.876c.238.5.512.588.75.531a.543.543 0 0 0 .381-.665.618.618 0 0 0-.05-.124 4.255 4.255 0 0 1-.212-.462c-.021-.055-.043-.112-.062-.169a1.444 1.444 0 0 1 0-1.122c.407-.743-2.239-3.363.676-4.923a5.109 5.109 0 0 0 1.608-1.324c.736-.931 1.229-2.284-.643-3.4-3.213-1.908-2.475.4-3.68.969s-7.026 2.744-7.5 4.921-2.406 2.512-.599 5.322z" transform="translate(-251.94 -49.4)"/>
            <g id="Group_9843" data-name="Group 9843" transform="translate(21.092 11.307)">
                <path id="Path_72258" data-name="Path 72258" d="M267.964 54.221a.077.077 0 0 0 .071.086l.517.052a2.727 2.727 0 0 0-.3-.193l-.2-.019a.082.082 0 0 0-.088.074z" transform="translate(-267.964 -54.147)" style="fill:#f3959e"/>
                <path id="Path_72259" data-name="Path 72259" class="cls-4" d="M268.083 54.155a2.727 2.727 0 0 1 .3.193l1.634.157 1.477.145h.007a.082.082 0 0 0 .081-.074.08.08 0 0 0-.074-.088l-1.548-.152z" transform="translate(-267.799 -54.136)"/>
            </g>
            <path id="Path_72260" data-name="Path 72260" class="cls-4" d="M268.947 60.007 272.574 62a2.649 2.649 0 0 0 1.808.322 7.751 7.751 0 0 0 1.708-.5c1.272-.562 1.184-5.671 1.146-6.852a.457.457 0 0 0-.212-.367l-1.779-1.143c-2.344.929-5.078 2.008-5.078 2.008l.136 2.141z" transform="translate(-245.513 -43.787)"/>
            <g id="Path_72261" data-name="Path 72261" transform="translate(11.88 7.744)">
                <path id="Path_429097" data-name="Path 429097" class="cls-5" d="m264.332 54.433-.232-.033a2.174 2.174 0 0 1 1.529-1.746l.067.229a1.932 1.932 0 0 0-1.364 1.55z" transform="translate(-264.096 -52.651)"/>
            </g>
            <g id="Path_72262" data-name="Path 72262" transform="translate(14.331 1.944)">
                <path id="Path_429098" data-name="Path 429098" class="cls-5" d="m265.356 54.163-.231-.057a5.058 5.058 0 0 1 1.817-2.356c1.539-1.272 5.08-1.524 5.23-1.534l.017.236c-.038 0-3.616.26-5.1 1.479a4.979 4.979 0 0 0-1.733 2.232z" transform="translate(-265.125 -50.216)"/>
            </g>
        </g>
    </g>
    <path id="Line_89" data-name="Line 89" transform="translate(21.201 32.486)" style="fill:none;stroke:#3c3b37;stroke-miterlimit:10;stroke-width:.75px" d="M0 0h42.263"/>
    <g id="Group_13921" data-name="Group 13921" transform="translate(31.677 15.712)">
        <path id="Path_429099" data-name="Path 429099" class="cls-5" d="M260.812 48.3v1.793h-7.181v-1.427L257.3 45.2c.843-.8.991-1.289.991-1.751 0-.745-.514-1.181-1.52-1.181a2.326 2.326 0 0 0-1.97.95l-1.6-1.031a4.411 4.411 0 0 1 3.773-1.765c2.117 0 3.53 1.086 3.53 2.81 0 .922-.257 1.765-1.589 3l-2.187 2.068z" transform="translate(-253.198 -40.425)"/>
        <path id="Path_429100" data-name="Path 429100" class="cls-5" d="M269.306 44.6v4.182h-2.117v-3.854c0-1.181-.531-1.724-1.386-1.724-.95 0-1.615.61-1.615 1.915v3.665h-2.118v-3.856c0-1.181-.5-1.724-1.386-1.724-.936 0-1.6.61-1.6 1.915v3.665h-2.12v-7.3h2.024v.841a2.957 2.957 0 0 1 2.294-.948 2.73 2.73 0 0 1 2.4 1.193 3.286 3.286 0 0 1 2.634-1.193c1.74-.005 2.99.998 2.99 3.223z" transform="translate(-247.994 -39.117)"/>
    </g>
</svg>
