<svg id="prokes6" xmlns="http://www.w3.org/2000/svg" width="84.67" height="84.67" viewBox="0 0 84.67 84.67">
    <defs>
        <style>
            .cls-2{fill:#fff}.cls-3{fill:#6ac50f}
        </style>
    </defs>
    <path id="Path_429110" data-name="Path 429110" d="M542.5 76.175a42.382 42.382 0 0 1-38.917 42.18q-1.679.143-3.43.143c-1.334 0-2.668-.071-3.978-.191a41.991 41.991 0 0 1-12.718-3.239A42.338 42.338 0 1 1 542.5 76.175z" transform="translate(-457.834 -33.828)" style="fill:#ffe9da"/>
    <g id="Group_9866" data-name="Group 9866" transform="translate(22.058 12.535)">
        <path id="Path_429111" data-name="Path 429111" class="cls-2" d="M507.629 82.906c.238 8.431-1.62 16.91-3.549 23.365a41.914 41.914 0 0 1-13.29 3.311q-1.679.143-3.43.143c-1.334 0-2.668-.071-3.978-.191a41.991 41.991 0 0 1-12.718-3.239c-1.929-6.454-3.787-14.933-3.549-23.389.5-17.2 14.409-22.912 14.409-22.912v-3.311h-.834a.215.215 0 0 1-.119-.024.537.537 0 0 1-.429-.524V48.49a.534.534 0 0 1 .548-.524h.762v-1.024a2.074 2.074 0 0 1 2.072-2.072h.238v-4.692h7.217v4.692h.238a2.074 2.074 0 0 1 2.072 2.072v1.024h.762a.534.534 0 0 1 .548.524v7.645a.537.537 0 0 1-.429.524.215.215 0 0 1-.119.024h-.834v3.311s13.912 5.716 14.412 22.912z" transform="translate(-467.095 -37.589)"/>
        <g id="Group_9863" data-name="Group 9863" transform="translate(11.301)">
            <path id="Path_72269" data-name="Path 72269" class="cls-2" d="M496.886 44a1.345 1.345 0 0 1-.388-.057l-2.6-.762a33.018 33.018 0 0 0-9.32-1.343h-11.361a1.375 1.375 0 1 1 0-2.751h11.366a35.773 35.773 0 0 1 10.1 1.453l2.6.765a1.375 1.375 0 0 1-.388 2.7z" transform="translate(-471.84 -39.091)"/>
        </g>
        <path id="Path_72270" data-name="Path 72270" class="cls-3" d="M487.021 43.991v7.636a.541.541 0 0 1-.429.531H473.01a.543.543 0 0 1-.434-.531v-7.636a.542.542 0 0 1 .541-.543h.755v-.007h11.849v.007h.762a.543.543 0 0 1 .538.543z" transform="translate(-459.523 -33.08)"/>
        <circle id="Ellipse_714" data-name="Ellipse 714" class="cls-3" cx="11.876" cy="11.876" r="11.876" transform="translate(8.4 34.77)"/>
        <g id="Group_9865" data-name="Group 9865" transform="translate(14.692 41.051)">
            <g id="Group_9864" data-name="Group 9864">
                <path id="Path_72271" data-name="Path 72271" class="cls-2" d="M480.09 64.122v2.5a.894.894 0 0 1-.893.893h-.7a.893.893 0 0 1-.893-.893v-2.5a.893.893 0 0 0-.893-.893h-2.553a.893.893 0 0 1-.893-.893v-.8a.893.893 0 0 1 .893-.893h2.553a.893.893 0 0 0 .893-.893v-2.53a.893.893 0 0 1 .893-.893h.7a.894.894 0 0 1 .893.893v2.527a.893.893 0 0 0 .893.893h2.553a.894.894 0 0 1 .893.893v.8a.894.894 0 0 1-.893.893h-2.553a.893.893 0 0 0-.893.893z" transform="translate(-473.264 -56.327)"/>
            </g>
        </g>
    </g>
</svg>
