<svg id="prokes3putih" xmlns="http://www.w3.org/2000/svg" xmlns:xlink="http://www.w3.org/1999/xlink" width="84.33" height="77.684" viewBox="0 0 84.33 77.684">
  <defs>
    <clipPath id="clip-path">
      <rect id="Rectangle_3496" data-name="Rectangle 3496" width="84.33" height="77.684" fill="none" stroke="#fff" stroke-width="1"/>
    </clipPath>
  </defs>
  <g id="Group_16148" data-name="Group 16148" transform="translate(0)" clip-path="url(#clip-path)">
    <g id="Group_16147" data-name="Group 16147" transform="translate(0.085 23.616)">
      <path id="Path_424500" data-name="Path 424500" d="M812.1,979.636a3.852,3.852,0,0,0-1.849-.375c-3.43.145-4.32-1.491-6.077-.412s-3.1,1.293-3.391,2.9c-.263,1.437-2.448.746-2.393,2.987v0c.009.277-.5,1.22-.416,1.593.752,3.415,1.737,5.129,2.259,5.4a13.745,13.745,0,0,1-.407,3.28,4.577,4.577,0,0,0-.818.075s.025,2.518-.037,2.7c-3.008,1.674-3.692,3.566-5.458,6.056s-.968,8.945-1,11.215a43.633,43.633,0,0,0,1.414,9.287c.679,2.464-.6,7.977-.6,7.977s1.51,2.083,2.543,2.18c12.18-1.1,15.944,3.628,16.047,1.994s.126-8.507-.631-11.137.522-8.42-.308-11.459-1.205-8.588-1.609-9.515-1.892-1.132-1.892-1.132.444-1.773.443-1.711a14.816,14.816,0,0,0-1.424-2.658l.23.066s1.108-2.178,1.147-2.187c2.669,1.291,3.577-.606,3.967-2.3a19.311,19.311,0,0,0,.354-2.109l.658-.145a.418.418,0,0,0,.3-.56l-.965-2.469.3-.212a.407.407,0,0,0,.167-.381l-.515-4.152c.028,0,.055.013.084.017-.031-1.27,2.792.262.294-4.054Z" transform="translate(-792.359 -978.479)" fill="none" stroke="#fff" stroke-miterlimit="10" stroke-width="2"/>
      <path id="Path_424501" data-name="Path 424501" d="M919.156,1015.061c-.034-2.27.766-8.725-1-11.215s-2.451-4.382-5.458-6.056c-.062-.183-.037-2.7-.037-2.7a4.577,4.577,0,0,0-.818-.075,13.711,13.711,0,0,1-.407-3.28c.521-.268,1.507-1.982,2.259-5.4.082-.373-.425-1.316-.416-1.593v0c.055-2.242-2.13-1.55-2.393-2.987-.3-1.612-1.634-1.825-3.392-2.9s-2.647.557-6.076.412a3.852,3.852,0,0,0-1.849.375l-.416.758c-2.5,4.316.325,2.785.294,4.054.029,0,.055-.013.084-.017l-.515,4.152a.407.407,0,0,0,.167.381l.3.212-.965,2.469a.418.418,0,0,0,.3.56l.658.145a19.3,19.3,0,0,0,.354,2.109c.39,1.7,1.3,3.595,3.967,2.3.039.009,1.147,2.187,1.147,2.187l.23-.065a14.781,14.781,0,0,0-1.424,2.658c0-.061.443,1.711.443,1.711s-1.488.206-1.892,1.132-.779,6.475-1.609,9.515.449,8.829-.308,11.459-.735,9.5-.631,11.137,3.868-3.091,16.047-1.994c1.033-.1,2.542-2.18,2.542-2.18s-1.274-5.512-.6-7.977A43.637,43.637,0,0,0,919.156,1015.061Z" transform="translate(-836.95 -978.479)" fill="none" stroke="#fff" stroke-miterlimit="10" stroke-width="2"/>
      <g id="Group_16146" data-name="Group 16146" transform="translate(23.824 4.155)">
        <g id="Group_16145" data-name="Group 16145">
          <text id="_2M" data-name="2M" transform="translate(15.866 11)" fill="none" font-size="12" font-family="Ubuntu-Bold, Ubuntu" font-weight="700"><tspan x="-8.79" y="0">2M</tspan></text>
          <g id="Group_16144" data-name="Group 16144" transform="translate(0 20.251)">
            <line id="Line_2" data-name="Line 2" x2="34.71" transform="translate(0 3.575)" fill="none" stroke="#fff" stroke-miterlimit="10" stroke-width="2"/>
            <line id="Line_3" data-name="Line 3" y2="7.149" transform="translate(34.71)" fill="none" stroke="#fff" stroke-miterlimit="10" stroke-width="2"/>
            <line id="Line_4" data-name="Line 4" y2="7.149" fill="none" stroke="#fff" stroke-miterlimit="10" stroke-width="2"/>
          </g>
        </g>
      </g>
    </g>
  </g>
</svg>
