<svg xmlns="http://www.w3.org/2000/svg" width="30.401" height="32.469" viewBox="0 0 30.401 32.469">
  <g id="specialeventfloral24" transform="translate(617.558 3399.131)">
    <circle id="Ellipse_1049" data-name="Ellipse 1049" cx="3.616" cy="3.616" r="3.616" transform="translate(-606.079 -3386.453)" fill="none" stroke="#b47822" stroke-linecap="round" stroke-linejoin="round" stroke-width="2"/>
    <path id="Path_323354" data-name="Path 323354" d="M-602.925-3384.185s5.5,10.806-2.37,10.845c-8.021.04-2.368-10.845-2.368-10.845" transform="translate(2.83 5.678)" fill="none" stroke="#b47822" stroke-linecap="round" stroke-linejoin="round" stroke-width="2"/>
    <path id="Path_323355" data-name="Path 323355" d="M-602.077-3387.06s12.112.635,8.208,7.475c-3.975,6.964-10.576-3.377-10.576-3.377" transform="translate(4.928 4.509)" fill="none" stroke="#b47822" stroke-linecap="round" stroke-linejoin="round" stroke-width="2"/>
    <path id="Path_323356" data-name="Path 323356" d="M-607.567-3387.06s-12.111.635-8.207,7.475c3.974,6.964,10.575-3.377,10.575-3.377" transform="translate(0 4.509)" fill="none" stroke="#b47822" stroke-linecap="round" stroke-linejoin="round" stroke-width="2"/>
    <path id="Path_323357" data-name="Path 323357" d="M-607.531-3387.288s-5.5-10.806,2.37-10.844c8.021-.041,2.368,10.844,2.368,10.844" transform="translate(2.91 0)" fill="none" stroke="#b47822" stroke-linecap="round" stroke-linejoin="round" stroke-width="2"/>
    <path id="Path_323358" data-name="Path 323358" d="M-607.567-3384.691s-12.111-.635-8.207-7.474c3.974-6.965,10.575,3.377,10.575,3.377" transform="translate(0 1.448)" fill="none" stroke="#b47822" stroke-linecap="round" stroke-linejoin="round" stroke-width="2"/>
    <path id="Path_323359" data-name="Path 323359" d="M-602.077-3384.691s12.112-.635,8.208-7.474c-3.975-6.965-10.576,3.377-10.576,3.377" transform="translate(4.928 1.448)" fill="none" stroke="#b47822" stroke-linecap="round" stroke-linejoin="round" stroke-width="2"/>
  </g>
</svg>
