<svg xmlns="http://www.w3.org/2000/svg" width="23.93" height="23.478" viewBox="0 0 23.93 23.478">
  <g id="acara2" transform="translate(-2940.322 2688.612)">
    <g id="Group_14209" data-name="Group 14209">
      <path id="Path_323348" data-name="Path 323348" d="M2955.953-2666.134h-6.484a4.022,4.022,0,0,1-4.021-4.022v-17.456h10.5a4.021,4.021,0,0,1,4.021,4.021v13.435a4.051,4.051,0,0,1-.08.8" fill="none" stroke="#494949" stroke-linecap="round" stroke-linejoin="round" stroke-width="2"/>
      <path id="Path_323349" data-name="Path 323349" d="M2944.537-2687.612a3.215,3.215,0,0,0-3.215,3.215v.007h4.126v-3.222Z" fill="none" stroke="#494949" stroke-linecap="round" stroke-linejoin="round" stroke-width="2"/>
      <path id="Path_323350" data-name="Path 323350" d="M2952.711-2669.356v.007a3.2,3.2,0,0,1-2.911,3.184v.031h10.237a3.215,3.215,0,0,0,3.215-3.215v-.007Z" fill="none" stroke="#494949" stroke-linecap="round" stroke-linejoin="round" stroke-width="2"/>
    </g>
    <path id="Path_323351" data-name="Path 323351" d="M2953.26-2680.917l.59,1.2a.49.49,0,0,0,.37.269l1.319.192a.492.492,0,0,1,.273.839l-.954.93a.494.494,0,0,0-.142.436l.225,1.314a.491.491,0,0,1-.713.518l-1.18-.62a.5.5,0,0,0-.458,0l-1.18.62a.492.492,0,0,1-.714-.518l.225-1.314a.49.49,0,0,0-.141-.436l-.955-.93a.492.492,0,0,1,.273-.839l1.319-.192a.491.491,0,0,0,.37-.269l.59-1.2A.492.492,0,0,1,2953.26-2680.917Z" fill="none" stroke="#494949" stroke-linecap="round" stroke-linejoin="round" stroke-width="2"/>
  </g>
</svg>
