<svg xmlns="http://www.w3.org/2000/svg" width="25.195" height="24.221" viewBox="0 0 25.195 24.221">
    <g data-name="Group 17041" transform="translate(0 1.026)">
        <circle data-name="Ellipse 1092" cx="11.598" cy="11.598" style="fill:#f1b600" r="11.598"/>
        <circle data-name="Ellipse 1093" cx="8.968" cy="8.968" transform="translate(2.631 2.631)" style="fill:#d8ffb1" r="8.968"/>
    </g>
    <g data-name="Group 17042">
        <path data-name="Path 432402" d="M-883.644-2711.365q2.1 2.617 4.371 5.093a1.672 1.672 0 0 0 2.609-.336c2.424-5.062 7.166-8.384 10.563-12.726a1.715 1.715 0 0 0 0-2.35 1.672 1.672 0 0 0-2.349 0c-3.572 4.565-8.531 8.071-11.083 13.4l2.609-.336q-2.267-2.476-4.372-5.093a1.67 1.67 0 0 0-2.349 0 1.7 1.7 0 0 0 0 2.349z" transform="translate(890.828 2722.167)" style="fill:#52b60d"/>
    </g>
</svg>
