<svg xmlns="http://www.w3.org/2000/svg" width="26.9" height="32.47" viewBox="0 0 26.9 32.47">
  <g id="panduantamufloral24" transform="translate(-1318.815 -301.924)">
    <rect id="Rectangle_5832" data-name="Rectangle 5832" width="24.899" height="30.422" rx="3" transform="translate(1319.815 302.972)" fill="none" stroke="#b47822" stroke-linecap="round" stroke-linejoin="round" stroke-width="2"/>
    <path id="Path_484159" data-name="Path 484159" d="M1319.879,336.328a2.171,2.171,0,0,1,2.444-2.337h22.391" transform="translate(0 -5.519)" fill="none" stroke="#b47822" stroke-linecap="round" stroke-linejoin="round" stroke-width="2"/>
    <line id="Line_212" data-name="Line 212" y2="24.5" transform="translate(1323.779 302.924)" fill="none" stroke="#b47822" stroke-linecap="round" stroke-linejoin="round" stroke-width="2"/>
    <g id="turut_mengundang_icon" data-name="turut mengundang icon" transform="translate(1328.215 309.292)">
      <g id="Group_61" data-name="Group 61" transform="translate(0 7.729)">
        <g id="Group_60" data-name="Group 60">
          <path id="Path_183" data-name="Path 183" d="M1341.583,319.995a.709.709,0,0,0-.927.128,3.607,3.607,0,0,1-5.094.267c-.051-.046-.1-.092-.148-.14a.7.7,0,0,0-.917-.051,6.476,6.476,0,0,0-2.473,4.329.74.74,0,0,0,.621.844.793.793,0,0,0,.093.008h10.885a.743.743,0,0,0,.724-.762.78.78,0,0,0-.009-.093A6.46,6.46,0,0,0,1341.583,319.995Z" transform="translate(-1332.015 -319.877)" fill="none" stroke="#b47822" stroke-width="1.5"/>
        </g>
      </g>
      <g id="Group_61-2" data-name="Group 61-2" transform="translate(2.786)">
        <circle id="Ellipse_1" data-name="Ellipse 1" cx="3.174" cy="3.174" r="3.174" fill="none" stroke="#b47822" stroke-miterlimit="10" stroke-width="1.5"/>
      </g>
    </g>
  </g>
</svg>
