<svg id="prokes2" xmlns="http://www.w3.org/2000/svg" width="84.67" height="84.67" viewBox="0 0 84.67 84.67">
    <defs>
        <style>
            .cls-2{fill:#fff}.cls-6{fill:none;stroke:#3c3b37;stroke-miterlimit:10}
        </style>
    </defs>
    <path id="Path_429092" data-name="Path 429092" d="M251.922 76.175A42.335 42.335 0 1 1 209.6 33.828a42.108 42.108 0 0 1 42.322 42.347z" transform="translate(-167.252 -33.828)" style="fill:#ffe9da"/>
    <g id="Group_9828" data-name="Group 9828" transform="translate(8.789 7.233)">
        <path id="Path_429093" data-name="Path 429093" class="cls-2" d="M236.725 68.044a42.325 42.325 0 0 1-65.783-1.6c5.383-1.929 11.242-2.453 17.2-5.192h.024a2.215 2.215 0 0 1 .238-.119 2.85 2.85 0 0 0 .4-.143 2.646 2.646 0 0 1 .381-.167c.071-.024.119-.048.191-.071 10.027-3.477 28.462 1.691 28.462 1.691a93.778 93.778 0 0 0 15.2 4.359 14.632 14.632 0 0 1 3.687 1.242z" transform="translate(-170.942 -5.516)"/>
        <path id="Path_72235" data-name="Path 72235" d="M178.163 88.657a30.174 30.174 0 0 0 16.3 7.226c10.115 1.205 13.409-6.023 13.409-6.023l-1.608-.8c-1.605-.805 2.41-11.242 2.41-11.242s.545-.007 1.4-.091a21.955 21.955 0 0 0 6.545-1.515c3.453-1.524 2.725-17.017 2.725-17.017l-4.756-3.051-1.667-1.067a1.8 1.8 0 0 1-.815-1.31l-.2-1.76a5.31 5.31 0 0 0-1.272-2.891l-4.854-5.576c-8.75-7.864-18.385-2.408-24.97 5.461s7.15 17.984 7.464 27.216-10.111 12.44-10.111 12.44z" transform="translate(-160.965 -32.932)" style="fill:#eda585"/>
        <g id="Group_9826" data-name="Group 9826" transform="translate(30.249 35.314)">
            <path id="Path_72236" data-name="Path 72236" class="cls-2" d="M192.109 55.544a.195.195 0 0 0 .074-.374l-8.272-3.463a.194.194 0 0 0-.15.357l8.272 3.465a.207.207 0 0 0 .076.015z" transform="translate(-183.642 -51.692)"/>
        </g>
        <path id="Path_72237" data-name="Path 72237" d="M177.769 65.536c4.335 6.743 13.488 11.561 12.683 15.093s3.692-.322 4.335-2.487 1.35-4.959 1.35-4.959-4.459-1.146-3.584-6.6c.562-3.52 3.015-3.639 5.044-2.537a5.634 5.634 0 0 1 .726.457 5.9 5.9 0 0 1 1.839 2.1c.572 1.191 1.231 1.412 1.8 1.277a1.3 1.3 0 0 0 .917-1.6 1.329 1.329 0 0 0-.121-.3 11.064 11.064 0 0 1-.507-1.107c-.05-.133-.1-.269-.143-.4a3.466 3.466 0 0 1-.012-2.694c.979-1.784-5.371-8.069 1.617-11.811a12.245 12.245 0 0 0 3.856-3.177c1.77-2.241 2.956-5.48-1.539-8.153-7.71-4.575-5.94.969-8.831 2.329s-16.86 6.583-17.984 11.8-5.786 6.024-1.446 12.769z" transform="translate(-164.019 -36.865)" style="fill:#3c3b37"/>
        <g id="Group_9827" data-name="Group 9827" transform="translate(32.893 27.13)">
            <path id="Path_72238" data-name="Path 72238" d="M184.753 48.43a.191.191 0 0 0 .174.21l1.238.121a5.631 5.631 0 0 0-.726-.457l-.469-.048a.2.2 0 0 0-.217.174z" transform="translate(-184.753 -48.256)" style="fill:#f3959e"/>
            <path id="Path_72239" data-name="Path 72239" class="cls-2" d="M185.04 48.275a5.924 5.924 0 0 1 .726.46l3.923.379 3.534.345h.019a.192.192 0 0 0 .2-.174.2.2 0 0 0-.176-.214l-3.715-.362z" transform="translate(-184.356 -48.229)"/>
        </g>
        <path id="Path_72240" data-name="Path 72240" class="cls-2" d="m187.113 62.322 8.708 4.778a6.371 6.371 0 0 0 4.337.769 18.507 18.507 0 0 0 4.1-1.188c3.051-1.348 2.839-13.607 2.749-16.436a1.107 1.107 0 0 0-.51-.9l-4.268-2.737c-5.623 2.227-12.18 4.816-12.18 4.816l.322 5.137z" transform="translate(-148.598 -23.397)"/>
        <path id="Path_72241" data-name="Path 72241" class="cls-6" d="M179.06 44.779s-3.206.915-3.468 3.958" transform="translate(-164.517 -25.93)"/>
        <path id="Path_72242" data-name="Path 72242" class="cls-6" d="M194.706 38.943s-8.722.6-12.387 3.615-4.259 5.5-4.259 5.5" transform="translate(-161.107 -33.993)"/>
    </g>
</svg>
