<svg id="prokes1putih" xmlns="http://www.w3.org/2000/svg" xmlns:xlink="http://www.w3.org/1999/xlink" width="77.684" height="77.684" viewBox="0 0 77.684 77.684">
  <defs>
    <clipPath id="clip-path">
      <rect id="Rectangle_3498" data-name="Rectangle 3498" width="77.684" height="77.684" fill="none" stroke="#fff" stroke-width="1"/>
    </clipPath>
  </defs>
  <g id="Group_16156" data-name="Group 16156" clip-path="url(#clip-path)">
    <g id="Group_16155" data-name="Group 16155" transform="translate(-15.885 19.671)">
      <g id="Group_16150" data-name="Group 16150" transform="translate(35.32 22.067)">
        <path id="Path_424502" data-name="Path 424502" d="M203.633,1013.448c3.613-.134,3.08-3.766,9.236-3.632s12.847,3.88,15.791,4.148,5.353.134,4.149,3.078-9.367,1.606-9.367,1.606,6.691,4.149,11.642,2.677,10.3-3.489,12.178-1.744-4.684,4.555-9.234,6.963-5.754,2.409-11.776,1.606a87.4,87.4,0,0,0-13.783-1.071c-5.085,0-8.459-.141-8.459-.141Z" transform="translate(-203.633 -1009.812)" fill="none" stroke="#fff" stroke-miterlimit="10" stroke-width="2"/>
      </g>
      <g id="Group_16151" data-name="Group 16151" transform="translate(0 19.192)">
        <path id="Path_424503" data-name="Path 424503" d="M142.566,1004.84s32.913,3.146,34.519,4.083,1.472,17.4.8,19.538-33.589,1.605-33.589,1.605Z" transform="translate(-142.566 -1004.84)" fill="none" stroke="#fff" stroke-miterlimit="10" stroke-width="2"/>
      </g>
      <g id="Group_16152" data-name="Group 16152" transform="translate(56.028)">
        <path id="Path_424504" data-name="Path 424504" d="M239.62,974.552c-.016,2.881,0,3.954,5.394,4.469s34.886,5.5,34.886,5.5l-.9-9.282s-28.592-2.922-32.549-3.438S239.633,972.158,239.62,974.552Z" transform="translate(-239.514 -971.658)" fill="none" stroke="#fff" stroke-miterlimit="10" stroke-width="2"/>
        <path id="Rectangle_3497" data-name="Rectangle 3497" d="M1.145,0H6.423A1.144,1.144,0,0,1,7.567,1.144v.529A1.145,1.145,0,0,1,6.423,2.818H1.145A1.145,1.145,0,0,1,0,1.673V1.145A1.145,1.145,0,0,1,1.145,0Z" transform="translate(0.421 5.801) rotate(8.599)" fill="none" stroke="#fff" stroke-miterlimit="10" stroke-width="2"/>
      </g>
      <g id="Group_16154" data-name="Group 16154" transform="translate(57.989 13.799)">
        <g id="Group_16153" data-name="Group 16153">
          <path id="Path_424505" data-name="Path 424505" d="M244.741,995.517s-4.3,8.062,0,8.268C250.224,1004.047,244.741,995.517,244.741,995.517Z" transform="translate(-242.828 -995.517)" fill="none" stroke="#fff" stroke-miterlimit="10" stroke-width="2"/>
        </g>
      </g>
    </g>
  </g>
</svg>
