<svg id="prokes5" xmlns="http://www.w3.org/2000/svg" width="84.67" height="84.67" viewBox="0 0 84.67 84.67">
    <defs>
        <style>
            .cls-3,.cls-4,.cls-5{fill-rule:evenodd}.cls-3{fill:#fbbebe}.cls-4{fill:#464646}.cls-5{fill:#3c3b37}
        </style>
    </defs>
    <path id="Path_429104" data-name="Path 429104" d="M469.859 76.175a42.239 42.239 0 0 1-10.1 27.414 39.239 39.239 0 0 1-2.906 3.072 42.508 42.508 0 0 1-13.623 8.836 43.437 43.437 0 0 1-10.884 2.739 45.807 45.807 0 0 1-4.811.262 41.459 41.459 0 0 1-4.906-.286 34.92 34.92 0 0 1-3.573-.6 41.4 41.4 0 0 1-10.646-3.668 42.455 42.455 0 0 1-8.527-5.74 4.125 4.125 0 0 1-.357-.31 42.013 42.013 0 0 1-5.549-5.907 41.139 41.139 0 0 1-4.954-8.241 41.77 41.77 0 0 1-3.835-17.577 42.335 42.335 0 1 1 84.67 0z" transform="translate(-385.189 -33.828)" style="fill:#ffe9da"/>
    <g id="Group_9854" data-name="Group 9854" transform="translate(24.41 34.396)">
        <path id="Path_25345" data-name="Path 25345" d="M428.177 63.338c-4.061 5.164-11.058 18.9-17.156 18.947-4.549.036-8.162-12.433-12.016-15.465a20.58 20.58 0 0 1-3.442-3.432l-.126-.155c2.217-2.868 5.9-5.726 11.973-7.048h8.46a17.633 17.633 0 0 1 12.307 7.153z" transform="translate(-395.438 -37.332)" style="fill-rule:evenodd;fill:#fff"/>
        <path id="Path_25347" data-name="Path 25347" class="cls-3" d="M410.763 61.984a11.281 11.281 0 0 0 .743 5.142 6.712 6.712 0 0 1-4.716 1.484 6.793 6.793 0 0 1-3.742-1.484c.264-3.049-1.748-3.182-3.287-4.849a5.325 5.325 0 0 1-.715-1.007c-1.25-2.227.424-7.393 1.086-9.274.16-.424.264-.691.264-.691 1.751-4.5 10.363-3.735 11.794.61a10.026 10.026 0 0 1-.207 6.466c-.451 1.436-1.035 2.624-1.22 3.603z" transform="translate(-391.075 -48.267)"/>
        <path id="Path_25349" data-name="Path 25349" class="cls-4" d="M411.957 58.383a1.455 1.455 0 0 0-1.829-1.484 1.285 1.285 0 0 1-.317.026c-.16.372-.372 1.591-.714 2.625-.345 1.143.979.291 0 2.251-.955 1.963-4.187 3.365-7.4 1.934-3.232-1.455-3.206-3.58-3.02-4.852.186-1.3 4.559-.291 4.663.665s3.1 1.667 3.711.715a27.529 27.529 0 0 0 1.429-4.69 3.577 3.577 0 0 1-.052-.8c.081-1.8-1.455-2.517-5.4-2.227a5.2 5.2 0 0 1-2.91-.555c.16-.424.264-.691.264-.691 1.751-4.506 10.363-3.737 11.794.61a10.035 10.035 0 0 1-.219 6.473z" transform="translate(-391.05 -48.27)"/>
    </g>
    <g id="Group_9855" data-name="Group 9855" transform="translate(55.065 34.572)">
        <g id="Group_3989" data-name="Group 3989">
            <path id="Path_429105" data-name="Path 429105" class="cls-5" d="M435.675 58.676a42.346 42.346 0 0 1-7.86 13.838 39.245 39.245 0 0 1-2.906 3.072 42.509 42.509 0 0 1-13.623 8.836c-.167-2.572.262-6.55.071-10.575a36.305 36.305 0 0 0-.119-1.6 20.751 20.751 0 0 0-1.143-5.478 11.208 11.208 0 0 0-.905-1.953 9.69 9.69 0 0 0-.881-1.31 8.982 8.982 0 0 1 .6-.738 5.777 5.777 0 0 1 .6-.738c.191-.191.381-.4.572-.572a7.584 7.584 0 0 1 .619-.619 17.769 17.769 0 0 1 9.074-4.406 1675.291 1675.291 0 0 1 .286-.048l.667-.071h8.5a21.862 21.862 0 0 1 6.448 2.362z" transform="translate(-408.309 -37.325)"/>
            <path id="Path_25363" data-name="Path 25363" class="cls-3" d="M413.691 58.522a10.07 10.07 0 0 1-.21-6.507c1.441-4.382 10.108-5.149 11.87-.614 0 0 .1.267.267.693.667 1.893 2.348 7.1 1.093 9.336a5.326 5.326 0 0 1-.719 1.015c-1.548 1.679-3.575 1.812-3.308 4.88a6.852 6.852 0 0 1-3.766 1.5 6.779 6.779 0 0 1-4.749-1.5 11.327 11.327 0 0 0 .748-5.175c-.185-.987-.773-2.187-1.226-3.628z" transform="translate(-401.771 -48.344)"/>
        </g>
        <path id="Path_25365" data-name="Path 25365" class="cls-4" d="M413.692 58.521a1.465 1.465 0 0 1 1.384-1.541 1.419 1.419 0 0 1 .457.048 1.2 1.2 0 0 0 .319.026 7.276 7.276 0 0 1 .243.865c1.222.088 1.367-.738 1.289-1.408-.083-.331-.152-.626-.2-.817a3.612 3.612 0 0 0 .052-.8c-.081-1.812 1.465-2.534 5.44-2.241a5.22 5.22 0 0 0 2.934-.56c-.162-.426-.267-.693-.267-.693-1.763-4.535-10.43-3.761-11.871.612a10.093 10.093 0 0 0 .22 6.509z" transform="translate(-401.772 -48.341)"/>
    </g>
    <g id="Group_9856" data-name="Group 9856" transform="translate(37.441 48.333)">
        <g id="Group_59" data-name="Group 59" transform="translate(0 .789)">
            <path id="Path_60" data-name="Path 60" class="cls-4" d="M419.019 59.548s2.434 9.927 2.067 12.778-11.718 1.784-11.318 0 1.312-10.973 1.879-11.373 7.372-1.405 7.372-1.405z" transform="translate(-388.683 -47.412)"/>
            <path id="Path_429106" data-name="Path 429106" d="M435.134 66.342a42.509 42.509 0 0 1-13.623 8.836 43.437 43.437 0 0 1-10.884 2.739 45.808 45.808 0 0 1-4.811.262 41.458 41.458 0 0 1-4.906-.286 24.381 24.381 0 0 1 2.144-5.073 22 22 0 0 1 1.739-2.644 17.113 17.113 0 0 1 1.215-1.405l.1-.1c.429-.429.881-.857 1.334-1.238a17.111 17.111 0 0 1 3.1-2.144 15.889 15.889 0 0 1 1.691-.834 18.782 18.782 0 0 1 1.62-.619 1.109 1.109 0 0 1 .214-.071 14.336 14.336 0 0 1 1.739-.453 17.2 17.2 0 0 1 1.882-.31h9.17a24.489 24.489 0 0 1 6.431 2.263 17.264 17.264 0 0 1 1.845 1.077z" transform="translate(-400.909 -42.631)" style="fill:#d76566;fill-rule:evenodd"/>
            <path id="Path_62" data-name="Path 62" class="cls-3" d="M407.748 64c.086.372.2.715.288 1.057.514 1.662 1.2 3.094 1.434 4.211.486 2.379-.8 5.559-.8 5.559.26.169.488.341.745.486v.029a7.188 7.188 0 0 0 8.422-.514c-.372-3.866 2.665-3.38 4.325-6.331 1.634-2.951-1.491-10.77-1.491-10.77a3.218 3.218 0 0 0-.4-.774c-2.548-3.977-10.884-3.008-12.345 1.431a10.235 10.235 0 0 0-.178 5.616z" transform="translate(-391.888 -54.453)"/>
        </g>
        <path id="Path_63" data-name="Path 63" class="cls-4" d="M428.669 58.255c-3.8-7.119-11.8-3.661-13.547.1l-.029-.026s-3.465 6.788-4.211 10.11-2.894 4.525-5.156 5.873c-2.72 1.631-4.011 5.957-2.98 8.134a18.988 18.988 0 0 1 12.89-7.159c.257.171.488.341.745.488.114-.145.2-.317.314-.488a22.758 22.758 0 0 0 1.827-7.35 1.345 1.345 0 0 1-1.515-1.148 1.384 1.384 0 0 1 0-.329 2.007 2.007 0 0 1 1.693-2.115l.148-.174v-.029a3.626 3.626 0 0 1 1.562-2.815 10.651 10.651 0 0 1 7.4-1.853.837.837 0 0 0 .86-1.222z" transform="translate(-398.859 -54.121)"/>
    </g>
    <g id="Group_64" data-name="Group 64" transform="translate(3.835 38.913)">
        <path id="Path_429107" data-name="Path 429107" class="cls-5" d="M417.071 80.4a48.524 48.524 0 0 1-.238 3.906 41.4 41.4 0 0 1-10.646-3.668 42.456 42.456 0 0 1-8.527-5.74 4.134 4.134 0 0 1-.357-.31 42.015 42.015 0 0 1-5.549-5.907 41.14 41.14 0 0 1-4.954-8.241 16.135 16.135 0 0 1 6.645-2.5h8.122c.1 0 .4-.024.881 0a13.729 13.729 0 0 1 6.026 1.62 15.231 15.231 0 0 1 1.786 1.167 14.951 14.951 0 0 1 4.311 5.335 21.466 21.466 0 0 1 1.786 5.287 15.488 15.488 0 0 1 .333 1.929v.024a38.546 38.546 0 0 1 .381 7.098z" transform="translate(-386.799 -39.434)"/>
        <path id="Path_65" data-name="Path 65" class="cls-3" d="M400.6 60.1v.074c-.431 1.293-.962 2.408-1.141 3.3a10.35 10.35 0 0 0 .71 4.916 6.4 6.4 0 0 1-8.107 0c.3-3.42-2.379-2.989-3.825-5.6-1.193-2.1.4-7.043 1.065-8.841.152-.431.252-.681.252-.681 1.672-4.282 9.906-3.573 11.275.607a9.412 9.412 0 0 1-.229 6.225z" transform="translate(-385.411 -49.88)"/>
        <path id="Path_66" data-name="Path 66" class="cls-4" d="M401.19 54.146c-.786-2.4-3.842-3.654-6.616-3.475v-.024l-.152.033a7.3 7.3 0 0 0-1.279.221c-1.639.231-4.218.393-5.18-.657a.227.227 0 0 0-.4.131c-.119 1.177-.026 3.613 2.682 4.111a5.145 5.145 0 0 0 2.174.243c3.8-.252 5.245.431 5.192 2.127-.076 1.724.836 2.155 1.622 2.027a1.387 1.387 0 0 1 1.689 1 1.459 1.459 0 0 1 .036.5 9.38 9.38 0 0 0 .232-6.237z" transform="translate(-385.778 -50.166)"/>
    </g>
    <g id="Group_9857" data-name="Group 9857" transform="translate(14.338 49.978)">
        <g id="Group_3985" data-name="Group 3985" transform="translate(.357 .714)">
            <path id="Path_429108" data-name="Path 429108" class="cls-5" d="M423.822 77.227a45.806 45.806 0 0 1-4.811.262 41.459 41.459 0 0 1-4.911-.289 34.919 34.919 0 0 1-3.573-.6 41.4 41.4 0 0 1-10.646-3.668 42.456 42.456 0 0 1-8.527-5.74 23.242 23.242 0 0 1 8.717-3.692h9c.048 0 .119.024.167.024.286.024.548.071.81.119a18.1 18.1 0 0 1 7.645 3.1 7.37 7.37 0 0 1 1.119.857 3.329 3.329 0 0 1 .476.381 14.081 14.081 0 0 1 1.953 2 4.881 4.881 0 0 1 .476.548c.033.029 2.083 4.34 2.105 6.698z" transform="translate(-391.359 -43.511)"/>
            <path id="Path_25342" data-name="Path 25342" class="cls-3" d="M407.646 64.484c-.083.364-.2.7-.284 1.038-.5 1.629-1.179 3.034-1.405 4.13a11.567 11.567 0 0 0 .788 5.454c-.255.167-.479.331-.731.476v.029a7.056 7.056 0 0 1-8.265-.5c.364-3.8-2.615-3.318-4.244-6.212-1.6-2.894 1.46-10.565 1.46-10.565a3.284 3.284 0 0 1 .393-.76c2.5-3.906 10.68-2.951 12.113 1.405a10.03 10.03 0 0 1 .175 5.505z" transform="translate(-389.035 -55.112)"/>
        </g>
        <path id="Path_429109" data-name="Path 429109" d="M419.027 79.62a1.389 1.389 0 0 1-.453.834c-.191.167-.357.333-.548.476a17.041 17.041 0 0 1-3.358 2.334 19.483 19.483 0 0 1-3.692 1.453 23.459 23.459 0 0 1-10.885.238 42.455 42.455 0 0 1-8.527-5.74 4.134 4.134 0 0 1-.357-.31 44.064 44.064 0 0 1 8.669-5.74h.024a7.29 7.29 0 0 0 4.549-4.811c.024-.1.048-.214.071-.31a6.068 6.068 0 0 0-.357-3 10.712 10.712 0 0 0-.9-2.072 16.171 16.171 0 0 0-1.834-2.715c-1.405-1.691-4.811 1.1-4.811 1.1-.5-2-.429-6.836 8.765-6.526a5.356 5.356 0 0 1 5.24 4c1.5 4.239.143 10.575-.143 12.218-.31 1.834 4.763 5.216 7.574 6.978.1.048.19.119.286.167a1.531 1.531 0 0 1 .31.238 1.4 1.4 0 0 1 .377 1.188z" transform="translate(-391.209 -54.812)" style="fill:#ff4e4b;fill-rule:evenodd"/>
    </g>
    <g id="Group_9861" data-name="Group 9861" transform="translate(30.215 4.991)">
        <circle id="Ellipse_713" data-name="Ellipse 713" cx="12.122" cy="12.122" r="12.122" style="fill:#ff4e4b"/>
        <g id="Group_9860" data-name="Group 9860" transform="translate(7.526 7.544)">
            <g id="Group_9859" data-name="Group 9859">
                <path id="Path_72267" data-name="Path 72267" d="m404.941 46.153-1.805 1.808a.91.91 0 0 1-1.286 0l-.5-.5a.91.91 0 0 1 0-1.286l1.805-1.805a.91.91 0 0 0 0-1.286l-1.855-1.856a.91.91 0 0 1 0-1.286l.579-.576a.908.908 0 0 1 1.286 0l1.843 1.841a.91.91 0 0 0 1.286 0l1.824-1.824a.913.913 0 0 1 1.288 0l.507.5a.91.91 0 0 1 0 1.286L408.1 43a.91.91 0 0 0 0 1.286l1.841 1.843a.908.908 0 0 1 0 1.289l-.576.579a.91.91 0 0 1-1.286 0l-1.843-1.843a.913.913 0 0 0-1.295-.001z" transform="translate(-401.035 -39.091)" style="fill:#fff"/>
            </g>
        </g>
    </g>
</svg>
